<?xml version="1.0" encoding="utf-8"?>
<!-- Generator: Adobe Adobe Illustrator 24.2.0, SVG Export Plug-In . SVG Version: 6.00 Build 0)  -->
<svg version="1.1" id="Layer_1" xmlns="http://www.w3.org/2000/svg" xmlns:xlink="http://www.w3.org/1999/xlink" x="0px" y="0px"
	 width="800px" height="800px" viewBox="0 0 800 800" style="enable-background:new 0 0 800 800;" xml:space="preserve">
<style type="text/css">
	.st0{fill:none;stroke:#F29200;stroke-width:4;stroke-miterlimit:10;}
	.st1{fill:#F29200;}
	.st2{fill:none;stroke:#851F82;stroke-width:3;stroke-miterlimit:10;}
	.st3{fill:none;stroke:#851F82;stroke-width:4;stroke-miterlimit:10;}
	.st4{fill:#851F82;}
	.st5{fill:none;stroke:#F29200;stroke-width:3;stroke-miterlimit:10;}
</style>
<path class="st3" d="M283.5,306.13V182.37c0-29.34,23.78-53.12,53.12-53.12h123.76c29.34,0,53.12,23.78,53.12,53.12v123.76
	c0,29.34-23.78,53.12-53.12,53.12H336.62C307.28,359.25,283.5,335.46,283.5,306.13z"/>
<path class="st0" d="M33.5,562.13V438.37c0-29.34,23.78-53.12,53.12-53.12h123.76c29.34,0,53.12,23.78,53.12,53.12v123.76
	c0,29.34-23.78,53.12-53.12,53.12H86.62C57.28,615.25,33.5,591.46,33.5,562.13z"/>
<path class="st0" d="M283.5,562.13V438.37c0-29.34,23.78-53.12,53.12-53.12h123.76c29.34,0,53.12,23.78,53.12,53.12v123.76
	c0,29.34-23.78,53.12-53.12,53.12H336.62C307.28,615.25,283.5,591.46,283.5,562.13z"/>
<path class="st0" d="M533.5,562.13V438.37c0-29.34,23.78-53.12,53.12-53.12h123.76c29.34,0,53.12,23.78,53.12,53.12v123.76
	c0,29.34-23.78,53.12-53.12,53.12H586.62C557.28,615.25,533.5,591.46,533.5,562.13z"/>
<path class="st4" d="M363.13,231.31L363.13,231.31c-1.95-1.95-1.95-5.12,0-7.07l31.35-31.35c1.95-1.95,5.12-1.95,7.07,0l0,0
	c1.95,1.95,1.95,5.12,0,7.07l-31.35,31.35C368.25,233.26,365.08,233.26,363.13,231.31z"/>
<path class="st4" d="M395.13,192.89L395.13,192.89c1.95-1.95,5.12-1.95,7.07,0l31.35,31.35c1.95,1.95,1.95,5.12,0,7.07l0,0
	c-1.95,1.95-5.12,1.95-7.07,0l-31.35-31.35C393.17,198.01,393.17,194.84,395.13,192.89z"/>
<path class="st4" d="M398.5,197.93L398.5,197.93c2.76,0,5,2.24,5,5v91c0,2.76-2.24,5-5,5l0,0c-2.76,0-5-2.24-5-5v-91
	C393.5,200.17,395.74,197.93,398.5,197.93z"/>
<path class="st4" d="M433.71,508.05L433.71,508.05c1.95,1.95,1.95,5.12,0,7.07l-31.35,31.35c-1.95,1.95-5.12,1.95-7.07,0l0,0
	c-1.95-1.95-1.95-5.12,0-7.07l31.35-31.35C428.59,506.1,431.76,506.1,433.71,508.05z"/>
<path class="st4" d="M401.71,546.47L401.71,546.47c-1.95,1.95-5.12,1.95-7.07,0l-31.35-31.35c-1.95-1.95-1.95-5.12,0-7.07v0
	c1.95-1.95,5.12-1.95,7.07,0l31.35,31.35C403.66,541.35,403.66,544.51,401.71,546.47z"/>
<path class="st4" d="M398.34,541.42L398.34,541.42c-2.76,0-5-2.24-5-5v-91c0-2.76,2.24-5,5-5l0,0c2.76,0,5,2.24,5,5v91
	C403.34,539.18,401.1,541.42,398.34,541.42z"/>
<path class="st4" d="M134.63,526.13L134.63,526.13c-1.95,1.95-5.12,1.95-7.07,0l-31.35-31.35c-1.95-1.95-1.95-5.12,0-7.07h0
	c1.95-1.95,5.12-1.95,7.07,0l31.35,31.35C136.58,521.01,136.58,524.18,134.63,526.13z"/>
<path class="st4" d="M96.21,494.13L96.21,494.13c-1.95-1.95-1.95-5.12,0-7.07l31.35-31.35c1.95-1.95,5.12-1.95,7.07,0v0
	c1.95,1.95,1.95,5.12,0,7.07l-31.35,31.35C101.33,496.08,98.16,496.08,96.21,494.13z"/>
<path class="st4" d="M101.25,490.76L101.25,490.76c0-2.76,2.24-5,5-5h91c2.76,0,5,2.24,5,5l0,0c0,2.76-2.24,5-5,5h-91
	C103.49,495.76,101.25,493.52,101.25,490.76z"/>
<path class="st4" d="M662.37,455.71L662.37,455.71c1.95-1.95,5.12-1.95,7.07,0l31.35,31.35c1.95,1.95,1.95,5.12,0,7.07l0,0
	c-1.95,1.95-5.12,1.95-7.07,0l-31.35-31.35C660.42,460.83,660.42,457.67,662.37,455.71z"/>
<path class="st4" d="M700.79,487.71L700.79,487.71c1.95,1.95,1.95,5.12,0,7.07l-31.35,31.35c-1.95,1.95-5.12,1.95-7.07,0l0,0
	c-1.95-1.95-1.95-5.12,0-7.07l31.35-31.35C695.67,485.76,698.84,485.76,700.79,487.71z"/>
<path class="st4" d="M695.75,491.09L695.75,491.09c0,2.76-2.24,5-5,5h-91c-2.76,0-5-2.24-5-5l0,0c0-2.76,2.24-5,5-5h91
	C693.51,486.09,695.75,488.33,695.75,491.09z"/>
<path class="st3" d="M283.5,306.13V182.37c0-29.34,23.78-53.12,53.12-53.12h123.76c29.34,0,53.12,23.78,53.12,53.12v123.76
	c0,29.34-23.78,53.12-53.12,53.12H336.62C307.28,359.25,283.5,335.46,283.5,306.13z"/>
<path class="st3" d="M33.5,562.13V438.37c0-29.34,23.78-53.12,53.12-53.12h123.76c29.34,0,53.12,23.78,53.12,53.12v123.76
	c0,29.34-23.78,53.12-53.12,53.12H86.62C57.28,615.25,33.5,591.46,33.5,562.13z"/>
<path class="st3" d="M283.5,562.13V438.37c0-29.34,23.78-53.12,53.12-53.12h123.76c29.34,0,53.12,23.78,53.12,53.12v123.76
	c0,29.34-23.78,53.12-53.12,53.12H336.62C307.28,615.25,283.5,591.46,283.5,562.13z"/>
<path class="st3" d="M533.5,562.13V438.37c0-29.34,23.78-53.12,53.12-53.12h123.76c29.34,0,53.12,23.78,53.12,53.12v123.76
	c0,29.34-23.78,53.12-53.12,53.12H586.62C557.28,615.25,533.5,591.46,533.5,562.13z"/>
<path class="st4" d="M363.13,231.31L363.13,231.31c-1.95-1.95-1.95-5.12,0-7.07l31.35-31.35c1.95-1.95,5.12-1.95,7.07,0l0,0
	c1.95,1.95,1.95,5.12,0,7.07l-31.35,31.35C368.25,233.26,365.08,233.26,363.13,231.31z"/>
<path class="st4" d="M395.13,192.89L395.13,192.89c1.95-1.95,5.12-1.95,7.07,0l31.35,31.35c1.95,1.95,1.95,5.12,0,7.07l0,0
	c-1.95,1.95-5.12,1.95-7.07,0l-31.35-31.35C393.17,198.01,393.17,194.84,395.13,192.89z"/>
<path class="st4" d="M398.5,197.93L398.5,197.93c2.76,0,5,2.24,5,5v91c0,2.76-2.24,5-5,5l0,0c-2.76,0-5-2.24-5-5v-91
	C393.5,200.17,395.74,197.93,398.5,197.93z"/>
<path class="st4" d="M433.71,508.05L433.71,508.05c1.95,1.95,1.95,5.12,0,7.07l-31.35,31.35c-1.95,1.95-5.12,1.95-7.07,0l0,0
	c-1.95-1.95-1.95-5.12,0-7.07l31.35-31.35C428.59,506.1,431.76,506.1,433.71,508.05z"/>
<path class="st4" d="M401.71,546.47L401.71,546.47c-1.95,1.95-5.12,1.95-7.07,0l-31.35-31.35c-1.95-1.95-1.95-5.12,0-7.07v0
	c1.95-1.95,5.12-1.95,7.07,0l31.35,31.35C403.66,541.35,403.66,544.51,401.71,546.47z"/>
<path class="st4" d="M398.34,541.42L398.34,541.42c-2.76,0-5-2.24-5-5v-91c0-2.76,2.24-5,5-5l0,0c2.76,0,5,2.24,5,5v91
	C403.34,539.18,401.1,541.42,398.34,541.42z"/>
<path class="st4" d="M134.63,526.13L134.63,526.13c-1.95,1.95-5.12,1.95-7.07,0l-31.35-31.35c-1.95-1.95-1.95-5.12,0-7.07h0
	c1.95-1.95,5.12-1.95,7.07,0l31.35,31.35C136.58,521.01,136.58,524.18,134.63,526.13z"/>
<path class="st4" d="M96.21,494.13L96.21,494.13c-1.95-1.95-1.95-5.12,0-7.07l31.35-31.35c1.95-1.95,5.12-1.95,7.07,0v0
	c1.95,1.95,1.95,5.12,0,7.07l-31.35,31.35C101.33,496.08,98.16,496.08,96.21,494.13z"/>
<path class="st4" d="M101.25,490.76L101.25,490.76c0-2.76,2.24-5,5-5h91c2.76,0,5,2.24,5,5l0,0c0,2.76-2.24,5-5,5h-91
	C103.49,495.76,101.25,493.52,101.25,490.76z"/>
<path class="st4" d="M695.75,491.09L695.75,491.09c0,2.76-2.24,5-5,5h-91c-2.76,0-5-2.24-5-5l0,0c0-2.76,2.24-5,5-5h91
	C693.51,486.09,695.75,488.33,695.75,491.09z"/>
</svg>
