<svg id="Layer_1" data-name="Layer 1" xmlns="http://www.w3.org/2000/svg" viewBox="0 0 415 316.97"><defs><style>.cls-1{fill:#0ef;}.cls-2{fill:#003c71;}.cls-3{fill:#b3f;}.cls-4{fill:#80c;}.cls-5{fill:#00becc;}</style></defs><title>Arrows_Vector</title><path class="cls-1" d="M321.24,83.92,221.89,4.66c-13.85-11-34.34-1.19-34.34,16.53V52.07l39.91,31.85,93.77,74.8-93.77,74.8-39.32,31.37v30.89c0,17.72,20.49,27.58,34.34,16.53l98.76-78.79L415,158.72Z" transform="translate(0 0)"/><path class="cls-2" d="M133.7,158.72,93.77,126.87V52.07L34.34,4.66C20.49-6.4,0,3.47,0,21.19V126.87l39.92,31.85L.59,190.1V295.78c0,17.72,20.49,27.58,34.34,16.53l59.43-47.42V190.1Z" transform="translate(0 0)"/><path class="cls-3" d="M227.47,158.72l-39.92-31.85V52.07L128.12,4.66A21.15,21.15,0,0,0,93.78,21.19V52.07l39.91,31.84,93.76,74.81-93.76,74.8L94.37,264.89v30.89a21.14,21.14,0,0,0,34.33,16.53l59.44-47.42V190.1Z" transform="translate(0 0)"/><polygon class="cls-4" points="227.45 158.72 133.69 83.92 93.78 52.07 93.78 126.87 133.7 158.72 94.36 190.1 94.36 264.89 133.69 233.52 227.45 158.72"/><polygon class="cls-5" points="321.23 158.72 227.46 83.92 187.55 52.07 187.55 126.87 227.47 158.72 188.14 190.1 188.14 264.89 227.46 233.52 321.23 158.72"/></svg>