<svg id="Layer_1" data-name="Layer 1" xmlns="http://www.w3.org/2000/svg" viewBox="0 0 1920 1080"><defs><style>.cls-1{fill:#fff;}</style></defs><path class="cls-1" d="M1251.13,573.55h-29.9v9.27H1311v-9.27h-24.13V417.18c-7.48,7.7-19.45,8.43-31.38,8.43h-29.73v9.17h25.38V573.55"/><path class="cls-1" d="M683.82,573.55H653.94v9.27h89.74v-9.27H719.57V417.18c-7.5,7.7-19.41,8.43-31.39,8.43H658.49v9.17h25.33V573.55"/><path class="cls-1" d="M1354.88,573.5h-28.8v9.28h91.14V573.5H1391V434.71h64.34V573.5h-24v9.28h88.68V573.5h-28.81V417.1c-7.54,7.69-20.52,8.46-32.44,8.46H1391V373.37c0-35,12.84-62.87,52.75-62.87,15.88,0,27.51,6.45,27.51,13.1,0,4.5-4,5.95-7.07,7.66-4.79,2.69-9.43,7.51-9.43,14.79,0,9.95,9.57,16.6,17.87,16.6,12.12,0,21-9.61,21-23.88,0-16.68-17.25-37.81-53.36-37.81-62.79,0-85.39,51-85.39,99.31v25.29h-32.54v9.15h32.54V573.5"/><path class="cls-1" d="M403.76,467.92c38.92,8.06,56.51,31.52,56.51,57.22,0,29.41-23.59,53.35-59.45,53.35-36.63,0-72.19-29.86-77.88-90.19H312.88v97h10.06c.73-6.46,3.48-11.35,11.19-11.35,14.38,0,29.93,15.16,67.28,15.16,54.16,0,84-32.79,84-83,0-39.25-19.73-68.42-71.72-81.15l-19.87-4.62c-45.89-10.66-59.31-31.7-59.31-53.25,0-29.38,22.8-49.28,50.41-49.28,43.13,0,68.68,34.92,74,78.45h10.71V315.77H460c-1.12,5-3.59,9.89-11.3,9.89-13.19,0-24.15-18.74-64.61-18.74-40.28,0-72.34,29.56-72.34,73.3,0,47,23.45,71.69,72.65,83.16l19.38,4.54"/><path class="cls-1" d="M1129.35,553.23c0,26.28,18,35.92,42,35.92,28.61,0,38.13-15.65,42.71-25.4l-7.33-5c-4.54,7.93-11.88,17.81-24.38,17.81-9.65,0-17.31-4.88-17.31-19.8v-122h41.76v-9.18h-41.71V377.69H1158c-6.26,37.28-23.64,47.84-58.74,47.84v9.18h30.09V553.23"/><path class="cls-1" d="M1015.61,573.5h26.68V457c0-18.65-10.16-26.27-23.19-26.27-23.43,0-41,22.41-48.94,33.42V573.5h27.43v9.26H906.28V573.5h28.13V434.71H906.28v-9.18h29.53c17.93,0,26.5,0,33.23-8.44v31.15h.78c7.72-9.19,26.06-31.15,57.88-31.15,33.73,0,50.37,22,50.37,48.33V573.5h28.13v9.26h-90.59V573.5"/><path class="cls-1" d="M633.47,531c-4,20.35-20.24,45.4-48.09,45.4-27.24,0-40.24-16.06-40.24-51.74V488.5c0-35,12.83-59.89,42.24-59.89,17.54,0,27.3,8.6,27.3,15.29,0,3.65-2.44,5.73-4.65,8.38-2.37,2.72-4.71,6.22-4.71,11.44,0,8.08,6.23,15.95,17.49,15.95,10.47,0,19.07-8.31,19.07-21.19,0-19-22.54-39.06-57.57-39.06-44.27,0-78.64,33.88-78.64,85.11,0,46.77,24.05,85.06,75.68,85.06,34.95,0,57.32-28.26,62-58.64h-9.92"/><path class="cls-1" d="M1647.54,530.53c-4,20.36-20.23,45.44-48.08,45.44-27.23,0-40.26-16.08-40.26-51.75V488.07c0-34.92,12.84-59.87,42.27-59.87,17.5,0,27.3,8.62,27.3,15.28,0,3.68-2.43,5.77-4.67,8.39s-4.68,6.23-4.68,11.48c0,8.07,6.18,15.9,17.48,15.9,10.46,0,19-8.3,19-21.2,0-19-22.55-39-57.6-39-44.2,0-78.62,33.87-78.62,85.11,0,46.76,24.09,85,75.66,85,35,0,57.37-28.27,62.06-58.64h-9.91"/><path class="cls-1" d="M883.56,530.15c-4.22,22.78-21.07,46.16-47.41,46.16-26.64,0-40.36-16.29-40.36-49.09V490.08h97.49c2.25,0,3.36-1.16,3.36-3.48,0-1.82,0-3.7,0-5.66,0-23.85-21.44-61.9-68.89-61.9C786.31,419,756,459.56,756,504.13c0,53.16,30.92,85.06,73.36,85.06,33.37,0,58-23.58,64.25-59ZM861,477.6a2.35,2.35,0,0,1-2.53,2.63H797.34V468.47c0-25,12.91-40.31,32.29-40.31,19.87,0,31.41,14.19,31.41,40.31v9.13"/><path class="cls-1" d="M548.9,140.9h9.43c36.25,0,55.49,20.4,55.49,45.69,0,36.19-24.42,48.58-54.22,48.58H548.9ZM512.16,353.64h-24.6v8.75h99.75c33.86,0,74-19.33,74-64.55,0-35.95-32.14-55.22-63.68-57v-1.65c26.67-2.3,53.45-19.47,53.45-54.92,0-30.71-26.12-51.92-73.81-51.92H487.41v8.55h24.75Zm36.74-109.7h17.36c36.55,0,56.43,24,56.43,53.75,0,32.61-19.64,55.95-53.18,55.95H548.9V243.94"/><path class="cls-1" d="M676.35,293.34c0,40.76,28.76,74.63,69.39,74.63s69.39-34.2,69.39-74.63c0-40.61-28.77-74.61-69.39-74.61S676.35,252.35,676.35,293.34Zm103.84,8.44c0,28.35-3.37,56.35-34.48,56.35s-34.48-28-34.48-56.35V284.93c0-28.39,2.63-56.38,34.48-56.38,32.74,0,34.48,28,34.48,56.38v16.85"/><path class="cls-1" d="M1032.67,293.39c0,40.76,28.79,74.62,69.41,74.62s69.41-34.22,69.41-74.62c0-40.64-28.79-74.63-69.41-74.63S1032.67,252.44,1032.67,293.39Zm103.89,8.42c0,28.38-3.4,56.38-34.48,56.38s-34.52-28-34.52-56.38V285c0-28.37,2.62-56.35,34.52-56.35,32.67,0,34.48,28,34.48,56.35v16.85"/><path class="cls-1" d="M1270.77,353.69h19.72V255.91c0-16.45-10.65-23.11-21.9-23.11-14.81,0-30.09,14.27-37.08,29.39v91.5h24.06v8.78h-83.8v-8.78h26.36V233.24h-25.61v-8.58h24.88c15.09,0,27.54,0,33.2-7.37V244h.64c13-15.74,30.58-26.74,50.89-26.74,31.71,0,42.75,22.55,42.75,41.42v95h18.81v8.78h-72.92v-8.78"/><path class="cls-1" d="M881.51,306.16c19,2.71,27.13,14,27.13,26.09,0,17.25-14,26.4-29.34,26.4-29.55,0-40.14-26.15-41.83-43.49H830l1,50.77h7.26c.59-5.25,2.31-7.35,5.65-7.35,6.86,0,15.09,9.37,35.91,9.37,30.94,0,49.79-19.33,49.79-48.46,0-20.83-11.79-39.66-38.26-43.52l-15.87-2.68c-20.8-3.45-28.08-10.65-28.08-23,0-12.06,10.2-22.39,27.86-22.39,20.45,0,32.32,12.76,35.61,32.74H918l-.79-40h-6.33c-.37,3-1.6,6.05-5,6.05-5.8,0-13.83-8-31.14-8-24.53,0-43.43,17.17-43.43,41.39,0,30.7,20.05,41.87,41.07,44.78l9.13,1.31"/><path class="cls-1" d="M1029.05,340.94c-3.23,5.49-10.27,13.85-20.75,13.85-8.66,0-16.38-3.89-16.38-17.64V233.21h37v-8.55h-37V177.57h-6.3c-5.36,33-23.89,47.07-50.53,47.07v8.57h23.42V336.73c0,22.65,16.09,31.41,38.57,31.41,20.77,0,31.61-10.59,37.21-19.35l-5.24-7.85"/><path class="cls-1" d="M224.69,675c-.82,19.2-1.85,38.3-1.85,62.15h-9.61c2-22.82,2.69-59.88,2.69-68.86h27.25c14.46,0,17.66,10.42,17.66,16.52,0,14.14-11.36,21.47-24.47,21.47a53.39,53.39,0,0,1-8.05-.72l-1.76-6.41a47,47,0,0,0,7.64.73c9.19,0,17.14-4.34,17.14-14.56,0-8.26-6-10.32-10.84-10.32Z"/><path class="cls-1" d="M277.77,694.16H278c3.3-6.3,7.85-9.29,15.38-9.29a16.52,16.52,0,0,1,4,.51l.31,7.54a21.59,21.59,0,0,0-5.78-.83c-8.47,0-12.91,6.61-14,14.25-1,6.61-1,18.17-1,30.77h-9.08c.83-14.76,1.86-29.63,1.76-51.11h8.56Z"/><path class="cls-1" d="M353.63,710c0,13.31-6.82,28.28-26.95,28.28-15.49,0-25.5-9.8-25.5-25.39,0-16.83,10-28,27.15-28C343.92,684.87,353.63,694.37,353.63,710ZM310,713.15c0,10.53,5.26,18.69,16.93,18.69,13.11,0,18-10.22,18-22,0-11.35-5.37-18.58-17.24-18.58S310,700.77,310,713.15Z"/><path class="cls-1" d="M373.09,695.19l.21-.2c3.3-6.41,9.7-10.12,17.24-10.12,7.23,0,13.52,3,15.48,10.43,3.51-7.23,10-10.43,18-10.43,9,0,15.9,4.33,15.9,13.94,0,5.88-1.55,17.65-1.76,38.3h-8.67c.62-11.57,1.65-23.13,1.65-34.59,0-6.81-3.2-10.73-10.32-10.73-3,0-8.88,1.34-12.29,8.46-2.68,5.58-2.68,14.66-3.3,36.86h-9.09c.62-11.57,1.66-23.13,1.66-34.59,0-6.81-3.21-10.73-10.33-10.73-3,0-8.88,1.34-12.28,8.46-2.69,5.58-2.69,14.66-3.31,36.86h-9.08C364.21,720.8,364.94,701,365,686h8.57Z"/><path class="cls-1" d="M502.31,710c0,13.31-6.81,28.28-26.94,28.28-15.49,0-25.5-9.8-25.5-25.39,0-16.83,10-28,27.15-28C492.61,684.87,502.31,694.37,502.31,710Zm-43.67,3.19c0,10.53,5.27,18.69,16.93,18.69,13.11,0,18-10.22,18-22,0-11.35-5.37-18.58-17.24-18.58S458.64,700.77,458.64,713.15Z"/><path class="cls-1" d="M557,686c-7.84,16.94-15.69,33.87-22.92,51.11h-9.91L505.7,686h9.4l14.45,43.47L547.62,686Z"/><path class="cls-1" d="M567.76,710.47v2.89c0,11.87,7.43,18.48,19.1,18.48,5.16,0,10.74-1.55,15.69-3.2l-1.44,7.54a61.69,61.69,0,0,1-15.59,2.06c-21.17,0-26.53-12.9-26.53-25.5,0-15.79,8.87-27.87,25.5-27.87,13.52,0,22.19,6.92,22.19,21a41,41,0,0,1-.31,4.64Zm30.66-5.37c0-8.46-3.92-14.86-13.11-14.86-9.39,0-15.38,5.88-16.93,14.86Z"/><path class="cls-1" d="M625.84,695.92l.2-.21c4.13-8.16,11.36-10.84,20.45-10.84,10.84,0,19.3,4,19.3,16,0,3.61-1.34,27.77-1.44,36.24h-9C655.78,731,657,713,657,704c0-8.78-5.37-12.18-13.84-12.18-8.67,0-15.07,5.26-16.93,13.73-2,9.08-2,26.43-2.06,31.59H615c1.24-17,2.37-34.07,2.58-51.11h8.88Z"/><path class="cls-1" d="M717,726.78l-.21-.2c-4,7.74-10.32,11.66-19.41,11.66-12.18,0-21.67-8.36-21.67-23.64,0-15.69,9.7-29.73,31.07-29.73a58.65,58.65,0,0,1,11.25,1c.31-6.09.31-10.74.31-17.65h9.09c-1.34,22.91-2.27,45.94-2.48,68.86h-8.57Zm-10.53-35.51c-16.11,0-22,13.21-22,22.92,0,10,5.16,17.65,15.49,17.65,9.08,0,14.55-6.91,16.21-15.18,1.54-7.95,1-16.31,1.44-23.95A35.41,35.41,0,0,0,706.43,691.27Z"/><path class="cls-1" d="M789.1,710c0,13.31-6.81,28.28-27,28.28-15.48,0-25.5-9.8-25.5-25.39,0-16.83,10-28,27.15-28C779.4,684.87,789.1,694.37,789.1,710Zm-43.67,3.19c0,10.53,5.26,18.69,16.93,18.69,13.11,0,18-10.22,18-22,0-11.35-5.36-18.58-17.24-18.58S745.43,700.77,745.43,713.15Z"/><path class="cls-1" d="M881.4,710c0,13.31-6.81,28.28-26.94,28.28-15.49,0-25.5-9.8-25.5-25.39,0-16.83,10-28,27.15-28C871.7,684.87,881.4,694.37,881.4,710Zm-43.67,3.19c0,10.53,5.27,18.69,16.93,18.69,13.11,0,18-10.22,18-22,0-11.35-5.36-18.58-17.23-18.58S837.73,700.77,837.73,713.15Z"/><path class="cls-1" d="M955,737.11c1-8,1.34-19.82,1.86-29.94-6.61,6.71-29.22,5.26-29.22,17.44,0,6.41,6.3,8.27,11.56,8.27A34.05,34.05,0,0,0,949.86,731l-1.66,6.19a55,55,0,0,1-10.11,1c-7.54,0-18.69-1.55-18.69-13.52,0-21.48,37.48-13.22,37.48-27.15,0-6.2-7-7.33-11.88-7.33a47.77,47.77,0,0,0-18.89,4l.93-6.71a74.87,74.87,0,0,1,19.1-2.68c17,0,19.51,6.61,19.51,13.21,0,7.64-1.55,27.67-1.55,39Z"/><path class="cls-1" d="M1023.05,686c-7.85,16.94-15.7,33.87-22.92,51.11h-9.91L971.74,686h9.39l14.45,43.47L1013.65,686Z"/><path class="cls-1" d="M1059.79,737.11c1-8,1.35-19.82,1.86-29.94-6.61,6.71-29.22,5.26-29.22,17.44,0,6.41,6.3,8.27,11.56,8.27a34.05,34.05,0,0,0,10.64-1.86l-1.65,6.19a55.13,55.13,0,0,1-10.12,1c-7.54,0-18.68-1.55-18.68-13.52,0-21.48,37.47-13.22,37.47-27.15,0-6.2-7-7.33-11.87-7.33a47.7,47.7,0,0,0-18.89,4l.92-6.71a74.93,74.93,0,0,1,19.1-2.68c17,0,19.51,6.61,19.51,13.21,0,7.64-1.54,27.67-1.54,39Z"/><path class="cls-1" d="M1092.56,695.92l.21-.21c4.13-8.16,11.36-10.84,20.44-10.84,10.84,0,19.31,4,19.31,16,0,3.61-1.35,27.77-1.45,36.24h-9c.41-6.09,1.65-24.16,1.65-33.14,0-8.78-5.37-12.18-13.83-12.18-8.68,0-15.08,5.26-16.93,13.73-2,9.08-2,26.43-2.07,31.59h-9.19c1.24-17,2.38-34.07,2.58-51.11h8.88Z"/><path class="cls-1" d="M1183.37,693.85a43.57,43.57,0,0,0-14.56-2.58c-11.77,0-17.45,9.81-17.45,21.78s6.3,18.79,18.28,18.79a40.94,40.94,0,0,0,12.08-2.27l-1.24,7.23a62.19,62.19,0,0,1-13.12,1.44c-16,0-24.77-9.19-24.77-25.09s7.84-28.28,26.22-28.28a49.65,49.65,0,0,1,14,2Zm-29.84,60.91,10.53-12.49h6.81l-6.29,12.49Z"/><path class="cls-1" d="M1241.32,710c0,13.31-6.81,28.28-26.94,28.28-15.49,0-25.51-9.8-25.51-25.39,0-16.83,10-28,27.16-28C1231.62,684.87,1241.32,694.37,1241.32,710Zm-43.67,3.19c0,10.53,5.26,18.69,16.93,18.69,13.11,0,18-10.22,18-22,0-11.35-5.37-18.58-17.24-18.58S1197.65,700.77,1197.65,713.15Z"/><path class="cls-1" d="M1322.47,726.78l-.21-.2c-4,7.74-10.32,11.66-19.4,11.66-12.19,0-21.69-8.36-21.69-23.64,0-15.69,9.71-29.73,31.08-29.73a58.72,58.72,0,0,1,11.25,1c.31-6.09.31-10.74.31-17.65h9.09c-1.34,22.91-2.27,45.94-2.48,68.86h-8.57Zm-10.53-35.51c-16.11,0-22,13.21-22,22.92,0,10,5.16,17.65,15.49,17.65,9.08,0,14.55-6.91,16.2-15.18,1.55-7.95,1-16.31,1.45-23.95A35.41,35.41,0,0,0,1311.94,691.27Z"/><path class="cls-1" d="M1375.77,737.11c1-8,1.34-19.82,1.86-29.94-6.61,6.71-29.22,5.26-29.22,17.44,0,6.41,6.3,8.27,11.56,8.27a34.05,34.05,0,0,0,10.64-1.86l-1.66,6.19a54.94,54.94,0,0,1-10.11,1c-7.54,0-18.69-1.55-18.69-13.52,0-21.48,37.48-13.22,37.48-27.15,0-6.2-7-7.33-11.87-7.33a47.78,47.78,0,0,0-18.9,4l.93-6.71a74.93,74.93,0,0,1,19.1-2.68c17,0,19.51,6.61,19.51,13.21,0,7.64-1.55,27.67-1.55,39Z"/><path class="cls-1" d="M1469.1,693.85a43.47,43.47,0,0,0-14.55-2.58c-11.77,0-17.45,9.81-17.45,21.78s6.29,18.79,18.27,18.79a40.88,40.88,0,0,0,12.08-2.27l-1.24,7.23a62.09,62.09,0,0,1-13.11,1.44c-16,0-24.78-9.19-24.78-25.09s7.85-28.28,26.23-28.28a49.75,49.75,0,0,1,14,2Z"/><path class="cls-1" d="M1488.27,686c-1.24,17-1.86,34.07-2,51.11h-9.5c1.34-17,2.06-34.07,2.27-51.11Zm-9.19-10.63.2-7.12H1489l-.21,7.12Z"/><path class="cls-1" d="M1506.77,710.47v2.89c0,11.87,7.43,18.48,19.1,18.48,5.16,0,10.73-1.55,15.69-3.2l-1.44,7.54a61.75,61.75,0,0,1-15.59,2.06c-21.17,0-26.54-12.9-26.54-25.5,0-15.79,8.88-27.87,25.51-27.87,13.52,0,22.19,6.92,22.19,21a41,41,0,0,1-.31,4.64Zm30.66-5.37c0-8.46-3.92-14.86-13.11-14.86-9.4,0-15.38,5.88-16.93,14.86Zm-12.8-35.41-6,8.47h-5.78l5.27-12.19h13.11l5.88,12.19h-5.88Z"/><path class="cls-1" d="M1564.84,695.92l.21-.21c4.13-8.16,11.35-10.84,20.44-10.84,10.84,0,19.31,4,19.31,16,0,3.61-1.35,27.77-1.45,36.24h-9C1594.78,731,1596,713,1596,704c0-8.78-5.37-12.18-13.83-12.18-8.67,0-15.07,5.26-16.93,13.73-2,9.08-2,26.43-2.07,31.59H1554c1.24-17,2.38-34.07,2.59-51.11h8.87Z"/><path class="cls-1" d="M1655.65,693.85a43.57,43.57,0,0,0-14.56-2.58c-11.77,0-17.45,9.81-17.45,21.78s6.3,18.79,18.28,18.79a41,41,0,0,0,12.08-2.27l-1.24,7.23a62.16,62.16,0,0,1-13.11,1.44c-16,0-24.78-9.19-24.78-25.09s7.85-28.28,26.22-28.28a49.65,49.65,0,0,1,14,2Z"/><path class="cls-1" d="M1674.81,686c-1.24,17-1.86,34.07-2,51.11h-9.5c1.35-17,2.07-34.07,2.27-51.11Zm-9.19-10.63.21-7.12h9.7l-.2,7.12Z"/><path class="cls-1" d="M1718,737.11c1-8,1.34-19.82,1.86-29.94-6.61,6.71-29.22,5.26-29.22,17.44,0,6.41,6.3,8.27,11.56,8.27a34.05,34.05,0,0,0,10.64-1.86l-1.66,6.19a55,55,0,0,1-10.11,1c-7.54,0-18.69-1.55-18.69-13.52,0-21.48,37.48-13.22,37.48-27.15,0-6.2-7-7.33-11.88-7.33a47.77,47.77,0,0,0-18.89,4l.93-6.71a74.87,74.87,0,0,1,19.1-2.68c17,0,19.51,6.61,19.51,13.21,0,7.64-1.55,27.67-1.55,39Z"/><path class="cls-1" d="M341.46,850.16c1.65-23.95,2.48-47.9,2.89-72a107.06,107.06,0,0,1,23.95-3c13.63,0,25.19,6,25.19,24.68,0,15.07-7.53,28.69-24.16,28.69a19.83,19.83,0,0,1-17.75-10.11h-.21c0,9.08-.72,18.48-.72,31.69Zm10.63-47c0,12.18,5.78,19,15.7,19,12.18,0,16.93-11.66,16.93-22.19,0-11.56-6.1-18.38-17.86-18.38a44.43,44.43,0,0,0-14.15,2.58C352.61,789.77,352.09,795.45,352.09,803.19Z"/><path class="cls-1" d="M435.73,827.45c1-8,1.34-19.82,1.86-29.94-6.61,6.71-29.22,5.26-29.22,17.45,0,6.4,6.3,8.26,11.56,8.26a34.05,34.05,0,0,0,10.64-1.86l-1.65,6.19a55.13,55.13,0,0,1-10.12,1c-7.54,0-18.69-1.54-18.69-13.52,0-21.47,37.48-13.21,37.48-27.15,0-6.2-7-7.33-11.87-7.33a47.78,47.78,0,0,0-18.9,4l.93-6.71a74.93,74.93,0,0,1,19.1-2.68c17,0,19.51,6.61,19.51,13.22,0,7.63-1.55,27.66-1.55,39Z"/><path class="cls-1" d="M467.83,784.5H468c3.3-6.3,7.84-9.29,15.38-9.29a17,17,0,0,1,4,.51l.31,7.54a21.59,21.59,0,0,0-5.79-.82c-8.46,0-12.9,6.6-14,14.24-1,6.61-1,18.18-1,30.77h-9.08c.82-14.76,1.85-29.63,1.75-51.1h8.57Z"/><path class="cls-1" d="M525.47,827.45c1-8,1.34-19.82,1.86-29.94-6.61,6.71-29.22,5.26-29.22,17.45,0,6.4,6.3,8.26,11.57,8.26a34,34,0,0,0,10.63-1.86l-1.65,6.19a55.13,55.13,0,0,1-10.12,1c-7.54,0-18.69-1.54-18.69-13.52,0-21.47,37.48-13.21,37.48-27.15,0-6.2-7-7.33-11.87-7.33a47.78,47.78,0,0,0-18.9,4l.93-6.71a74.93,74.93,0,0,1,19.1-2.68c17,0,19.52,6.61,19.52,13.22,0,7.63-1.55,27.66-1.55,39Z"/><path class="cls-1" d="M611.78,827.45c1-8,1.35-19.82,1.86-29.94-6.6,6.71-29.21,5.26-29.21,17.45,0,6.4,6.29,8.26,11.56,8.26a34,34,0,0,0,10.63-1.86L605,827.55a55,55,0,0,1-10.12,1c-7.53,0-18.68-1.54-18.68-13.52,0-21.47,37.47-13.21,37.47-27.15,0-6.2-7-7.33-11.87-7.33a47.77,47.77,0,0,0-18.89,4l.93-6.71a74.8,74.8,0,0,1,19.1-2.68c17,0,19.51,6.61,19.51,13.22,0,7.63-1.55,27.66-1.55,39Z"/><path class="cls-1" d="M665.37,850.16c1.66-23.95,2.48-47.9,2.89-72a107.22,107.22,0,0,1,24-3c13.62,0,25.19,6,25.19,24.68,0,15.07-7.54,28.69-24.16,28.69a19.84,19.84,0,0,1-17.76-10.11h-.21c0,9.08-.72,18.48-.72,31.69Zm10.64-47c0,12.18,5.78,19,15.69,19,12.18,0,16.93-11.66,16.93-22.19,0-11.56-6.09-18.38-17.86-18.38a44.37,44.37,0,0,0-14.14,2.58C676.52,789.77,676,795.45,676,803.19Z"/><path class="cls-1" d="M736.83,784.5H737c3.3-6.3,7.84-9.29,15.38-9.29a16.94,16.94,0,0,1,4,.51l.31,7.54a21.52,21.52,0,0,0-5.78-.82c-8.46,0-12.9,6.6-14,14.24-1,6.61-1,18.18-1,30.77h-9.08c.82-14.76,1.85-29.63,1.75-51.1h8.57Z"/><path class="cls-1" d="M769.17,800.81v2.89c0,11.88,7.43,18.48,19.09,18.48,5.17,0,10.74-1.55,15.7-3.2l-1.45,7.54a61.64,61.64,0,0,1-15.59,2.06c-21.16,0-26.53-12.9-26.53-25.5,0-15.79,8.88-27.87,25.5-27.87,13.53,0,22.2,6.92,22.2,21a43.26,43.26,0,0,1-.31,4.64Zm30.66-5.36c0-8.47-3.93-14.87-13.11-14.87-9.4,0-15.39,5.88-16.93,14.87Z"/><path class="cls-1" d="M812.83,818.88a38.32,38.32,0,0,0,14.45,3.3c4.34,0,10.33-1.23,10.33-6.6,0-9.5-21.17-15.39-21.17-27.57,0-7.43,5.58-12.8,17.45-12.8a72.45,72.45,0,0,1,12.39,1.34l.41,7.23a34.23,34.23,0,0,0-11.87-2.17c-4.34,0-9.6,1-9.6,5.89,0,9.39,21.16,15.27,21.16,28.08,0,9.6-9.81,13-17.86,13a60.79,60.79,0,0,1-15-2.06Z"/><path class="cls-1" d="M863.34,800.81v2.89c0,11.88,7.43,18.48,19.1,18.48,5.16,0,10.73-1.55,15.69-3.2l-1.45,7.54a61.64,61.64,0,0,1-15.59,2.06c-21.16,0-26.53-12.9-26.53-25.5,0-15.79,8.88-27.87,25.5-27.87,13.53,0,22.2,6.92,22.2,21a40.81,40.81,0,0,1-.31,4.64ZM894,795.45c0-8.47-3.93-14.87-13.11-14.87-9.4,0-15.39,5.88-16.93,14.87Z"/><path class="cls-1" d="M920.59,784.5h.2c3.31-6.3,7.85-9.29,15.39-9.29a17,17,0,0,1,4,.51l.31,7.54a21.58,21.58,0,0,0-5.78-.82c-8.47,0-12.9,6.6-14,14.24-1,6.61-1,18.18-1,30.77h-9.09c.83-14.76,1.86-29.63,1.76-51.1h8.57Z"/><path class="cls-1" d="M996.33,776.35c-7.84,16.93-15.69,33.86-22.91,51.1h-9.91L945,776.35h9.39l14.45,43.46,18.07-43.46Z"/><path class="cls-1" d="M1033.08,827.45c1-8,1.34-19.82,1.86-29.94-6.6,6.71-29.22,5.26-29.22,17.45,0,6.4,6.3,8.26,11.57,8.26a34,34,0,0,0,10.63-1.86l-1.65,6.19a55,55,0,0,1-10.12,1c-7.53,0-18.69-1.54-18.69-13.52,0-21.47,37.48-13.21,37.48-27.15,0-6.2-7-7.33-11.87-7.33a47.78,47.78,0,0,0-18.9,4l.93-6.71a74.93,74.93,0,0,1,19.1-2.68c17,0,19.52,6.61,19.52,13.22,0,7.63-1.55,27.66-1.55,39Z"/><path class="cls-1" d="M1094.62,784.19a43.57,43.57,0,0,0-14.56-2.58c-11.77,0-17.45,9.81-17.45,21.79s6.3,18.78,18.28,18.78a41,41,0,0,0,12.08-2.27l-1.25,7.23a62.09,62.09,0,0,1-13.11,1.44c-16,0-24.77-9.18-24.77-25.08s7.84-28.29,26.22-28.29a49.65,49.65,0,0,1,14,2Zm-29.84,60.91,10.53-12.49h6.81l-6.3,12.49Z"/><path class="cls-1" d="M1136.44,827.45c1-8,1.34-19.82,1.86-29.94-6.61,6.71-29.21,5.26-29.21,17.45,0,6.4,6.29,8.26,11.56,8.26a34,34,0,0,0,10.63-1.86l-1.65,6.19a55.13,55.13,0,0,1-10.12,1c-7.54,0-18.69-1.54-18.69-13.52,0-21.47,37.48-13.21,37.48-27.15,0-6.2-7-7.33-11.87-7.33a47.7,47.7,0,0,0-18.89,4l.92-6.71a74.93,74.93,0,0,1,19.1-2.68c17,0,19.52,6.61,19.52,13.22,0,7.63-1.55,27.66-1.55,39Zm-24.88-59.78c.1-4.54.72-11.56,6.81-11.56,2.69,0,5.37,1.86,8,3.61s5,3.62,6.92,3.62c3,0,3.1-4.44,3.1-6.61h5.16c-.1,4.95-.62,12-7,12-2.79,0-5.58-1.85-8-3.71s-5-3.51-6.92-3.51c-2.89,0-2.79,4.23-3,6.19Z"/><path class="cls-1" d="M1209.45,800.3c0,13.31-6.81,28.28-27,28.28-15.49,0-25.5-9.8-25.5-25.39,0-16.83,10-28,27.15-28C1199.74,775.21,1209.45,784.71,1209.45,800.3Zm-43.67,3.2c0,10.53,5.26,18.68,16.93,18.68,13.11,0,18-10.22,18-22,0-11.35-5.37-18.58-17.24-18.58S1165.78,791.11,1165.78,803.5Z"/><path class="cls-1" d="M1290.6,817.12l-.21-.2c-4,7.74-10.32,11.66-19.41,11.66-12.18,0-21.68-8.36-21.68-23.64,0-15.69,9.71-29.73,31.08-29.73a58.72,58.72,0,0,1,11.25,1c.31-6.09.31-10.73.31-17.65H1301c-1.34,22.92-2.26,45.94-2.47,68.86H1290Zm-10.53-35.51c-16.11,0-22,13.22-22,22.92,0,10,5.16,17.65,15.48,17.65,9.09,0,14.56-6.91,16.21-15.17,1.55-8,1-16.32,1.45-24A35.08,35.08,0,0,0,1280.07,781.61Z"/><path class="cls-1" d="M1343.9,827.45c1-8,1.34-19.82,1.85-29.94-6.61,6.71-29.21,5.26-29.21,17.45,0,6.4,6.29,8.26,11.56,8.26a34,34,0,0,0,10.63-1.86l-1.65,6.19a55.13,55.13,0,0,1-10.12,1c-7.53,0-18.68-1.54-18.68-13.52,0-21.47,37.47-13.21,37.47-27.15,0-6.2-7-7.33-11.87-7.33a47.77,47.77,0,0,0-18.89,4l.93-6.71a74.8,74.8,0,0,1,19.1-2.68c17,0,19.51,6.61,19.51,13.22,0,7.63-1.55,27.66-1.55,39Z"/><path class="cls-1" d="M1443.84,776.35c-7.85,16.93-15.7,33.86-22.92,51.1H1411l-18.48-51.1h9.39l14.45,43.46,18.07-43.46Z"/><path class="cls-1" d="M1460.74,776.35c-1.24,17-1.86,34.07-2,51.1h-9.5q2-25.55,2.27-51.1Zm-9.19-10.64.21-7.12h9.7l-.2,7.12Z"/><path class="cls-1" d="M1511.52,817.12l-.21-.2c-4,7.74-10.32,11.66-19.41,11.66-12.18,0-21.68-8.36-21.68-23.64,0-15.69,9.7-29.73,31.07-29.73a58.83,58.83,0,0,1,11.26,1c.31-6.09.31-10.73.31-17.65h9.08c-1.34,22.92-2.27,45.94-2.48,68.86h-8.57ZM1501,781.61c-16.11,0-22,13.22-22,22.92,0,10,5.16,17.65,15.49,17.65,9.08,0,14.56-6.91,16.21-15.17,1.55-8,1-16.32,1.44-24A35.05,35.05,0,0,0,1501,781.61Z"/><path class="cls-1" d="M1564.81,827.45c1-8,1.34-19.82,1.86-29.94-6.61,6.71-29.22,5.26-29.22,17.45,0,6.4,6.3,8.26,11.56,8.26a34.05,34.05,0,0,0,10.64-1.86l-1.65,6.19a55.13,55.13,0,0,1-10.12,1c-7.54,0-18.69-1.54-18.69-13.52,0-21.47,37.48-13.21,37.48-27.15,0-6.2-7-7.33-11.87-7.33a47.78,47.78,0,0,0-18.9,4l.93-6.71a74.93,74.93,0,0,1,19.1-2.68c17,0,19.51,6.61,19.51,13.22,0,7.63-1.54,27.66-1.54,39Z"/><path class="cls-1" d="M1589.57,783c.36-6.86.66-13.79.84-20.65-2.53,0-5,.06-7.53.12l.19-3.25h19.68l-.17,3.25c-2.54-.06-5.12-.12-7.65-.12-.3,6.86-.6,13.79-.67,20.65Zm39.14,0c.18-6.56.24-13.19.24-19.75h-.12c-2.71,6.56-5.42,13.19-8.07,19.75h-5.24c-1.81-6.56-3.79-13.19-5.54-19.75h-.12c-.48,6.56-.9,13.19-1.27,19.75h-4.09c.66-8,1.14-15.84,1.57-23.78h7.16c1.51,6.38,3.43,12.7,5.36,19.09,2.77-6.39,5.48-12.71,7.89-19.09h6.62c-.24,7.94-.36,15.83-.3,23.78Z"/></svg>