<?xml version="1.0" encoding="utf-8"?>
<!-- Generator: Adobe Illustrator 25.4.1, SVG Export Plug-In . SVG Version: 6.00 Build 0)  -->
<svg version="1.1" id="Layer_1" xmlns="http://www.w3.org/2000/svg" xmlns:xlink="http://www.w3.org/1999/xlink" x="0px" y="0px"
	 viewBox="0 0 1920 1080" style="enable-background:new 0 0 1920 1080;" xml:space="preserve">
<style type="text/css">
	.st0{fill:#00467F;}
</style>
<path class="st0" d="M1279,637.5h-34V648h102.2v-10.5h-27.4v-178c-8.5,8.7-22,9.6-35.7,9.6h-33.8v10.4h28.9V637.5"/>
<path class="st0" d="M633.2,637.5h-34.1V648h102.1v-10.5h-27.4v-178c-8.5,8.7-22,9.6-35.7,9.6h-33.8v10.4h28.8L633.2,637.5"/>
<path class="st0" d="M1397.1,637.4h-32.8V648h103.8v-10.5h-29.9V479.5h73.2v157.9H1484V648h101v-10.5h-32.8V459.4
	c-8.6,8.8-23.4,9.6-36.9,9.6h-77.1v-59.4c0-39.9,14.7-71.6,60.1-71.6c18.1,0,31.3,7.3,31.3,14.9c0,5.1-4.5,6.8-8,8.7
	c-6.4,3.2-10.6,9.6-10.8,16.8c0,11.3,11,18.9,20.3,18.9c13.8,0,23.9-11,23.9-27.2c0-19-19.7-43-60.8-43c-71.5,0-97.2,58-97.2,113.1
	V469h-37v10.4h37.1V637.4"/>
<path class="st0" d="M314.4,517.2c44.3,9.2,64.3,35.9,64.3,65.2c0,33.5-26.9,60.7-67.7,60.7c-41.7,0-82.2-34-88.7-102.8h-11.5v110.7
	h11.5c0.8-7.3,4-12.9,12.7-12.9c16.4,0,34.1,17.3,76.6,17.3c61.7,0,95.7-37.3,95.7-94.5c0-44.7-22.5-77.9-81.6-92.4l-22.6-5.3
	c-52.2-12-67.6-36.1-67.6-60.6c0-33.5,26-56.1,57.4-56.1c49.1,0,78.3,39.7,84.3,89.3h12.2v-91.6h-11c-1.3,5.7-4.1,11.2-12.9,11.2
	c-15,0-27.5-21.3-73.5-21.3s-82.2,33.6-82.2,83.4c0,53.6,26.6,81.5,82.6,94.7L314.4,517.2"/>
<path class="st0" d="M1140.4,614.3c0,29.9,20.5,40.9,47.7,40.9c32.6,0,43.4-17.8,48.6-28.9l-8.3-5.7c-5.2,9-13.5,20.3-27.8,20.3
	c-11,0-19.7-5.5-19.7-22.5V479.4h47.5V469H1181v-54.6h-8c-7.2,42.6-26.9,54.6-67,54.6v10.4h34.3v134.9"/>
<path class="st0" d="M1010.9,637.4h30.3V504.9c0-21.2-11.5-29.9-26.4-29.9c-26.7,0-46.6,25.7-55.7,38.1v124.4h31.2v10.5H886.4v-10.5
	h32.2V479.5h-32V469h33.6c20.4,0,30.2,0,37.8-9.6v35.5h0.9c8.8-10.5,29.7-35.5,65.9-35.5c38.4,0,57.3,25,57.3,55.1v123h32V648
	h-103.3V637.4"/>
<path class="st0" d="M575.9,589c-4.6,23.1-23.1,51.7-54.8,51.7c-31,0-45.8-18.4-45.8-58.8v-41.2c0-39.8,14.7-68.2,48.1-68.2
	c20,0,31.1,9.8,31.1,17.4c0,4.2-2.8,6.5-5.3,9.5c-3.3,3.5-5.2,8.2-5.2,13c0,9.2,7.1,18.4,19.9,18.4c11.9,0,21.7-9.5,21.7-24.1
	c0-21.6-25.7-44.5-65.5-44.5c-50.4,0-89.5,38.6-89.5,96.9c0,53.2,27.4,96.8,86.1,96.8c39.8,0,65.3-32.2,70.6-66.7h-11.3"/>
<path class="st0" d="M1730.3,588.5c-4.5,23.2-23,51.7-54.7,51.7c-31,0-45.8-18.4-45.8-58.8v-41.1c0-39.7,14.7-68.2,48.1-68.2
	c19.9,0,31.1,9.8,31.1,17.4c0,4.2-2.8,6.6-5.3,9.5c-3.4,3.5-5.3,8.2-5.3,13.1c0,9.2,7,18.1,19.9,18.1c11.9,0,21.7-9.5,21.7-24.2
	c0-21.6-25.7-44.4-65.6-44.4c-50.3,0-89.5,38.5-89.5,96.9c0,53.2,27.4,96.8,86.1,96.8c39.8,0,65.3-32.2,70.6-66.7h-11.3"/>
<path class="st0" d="M860.6,588.1c-4.8,25.9-24,52.6-54,52.6s-45.9-18.4-45.9-55.9v-42.3h111c2.6,0,3.7-1.3,3.7-4c0-2.1,0-4.2,0-6.4
	c0-27.1-24.4-70.5-78.4-70.5c-47.1,0-81.6,46.1-81.6,96.9c0,60.5,35.2,96.8,83.5,96.8c38,0,66.1-26.8,73.2-67.2L860.6,588.1z
	 M834.8,528.2c0.2,1.5-0.8,2.8-2.3,3c-0.2,0-0.4,0-0.6,0h-69.5v-13.4c0-28.4,14.7-45.9,36.7-45.9c22.6,0,35.8,16.2,35.8,45.9
	L834.8,528.2"/>
<path class="st0" d="M479.6,145h10.8c41.2,0,63.1,23.2,63.1,52c0,41.2-27.8,55.3-61.7,55.3h-12.2V145z M437.8,387.1h-28v10h113.5
	c38.6,0,84.2-22,84.2-73.5c0-40.9-36.7-62.9-72.5-64.9v-1.9c30.3-2.6,60.9-22,60.9-62.4c0-35.1-29.9-59.2-84-59.2H409.6v9.7h28.2
	V387.1z M479.6,262.3h19.8c41.6,0,64.2,27.3,64.2,61.2c0,37.1-22.4,63.7-60.6,63.7h-23.5V262.3"/>
<path class="st0" d="M624.8,318.5c0,46.4,32.6,84.9,78.9,84.9c46.2,0,79.1-38.8,79.1-84.9s-32.8-84.9-79-84.9
	C657.5,233.6,624.8,271.8,624.8,318.5z M743,328.1c0,32.3-3.7,64.2-39.3,64.2c-35.6,0-39.2-31.9-39.2-64.2v-19.2
	c0-32.3,3-64.2,39.2-64.2c37.3,0,39.3,31.8,39.3,64.2V328.1"/>
<path class="st0" d="M1030.3,318.6c0,46.4,32.8,85,79,85s79-39,79-85s-32.8-85-79-85S1030.3,272,1030.3,318.6z M1148.5,328.1
	c0,32.3-3.9,64.2-39.3,64.2s-39.3-31.9-39.3-64.2V309c0-32.3,3-64.2,39.3-64.2c37.2,0,39.3,31.8,39.3,64.2V328.1"/>
<path class="st0" d="M1301.3,387.2h22.4V275.9c0-18.7-12.1-26.3-24.9-26.3c-16.9,0-34.2,16.2-42.2,33.5v104.2h27.4v10h-95.5v-10h30
	V250.1h-29.1v-9.8h28.3c17.2,0,31.3,0,37.8-8.4v30.4h0.7c14.7-17.9,34.8-30.4,57.9-30.4c36.1,0,48.7,25.7,48.7,47.2v108.1h21.4v10
	h-82.9V387.2"/>
<path class="st0" d="M858.2,333.1c21.7,3.1,30.9,15.9,30.9,29.7c0,19.7-15.9,30.1-33.4,30.1c-33.6,0-45.7-29.8-47.7-49.5h-8.5
	l1.1,57.8h8.3c0.7-6,2.6-8.3,6.4-8.3c7.8,0,17.2,10.7,40.9,10.7c35.2,0,56.7-22,56.7-55.1c0-23.7-13.4-45.1-43.6-49.5l-18.1-3
	c-23.7-3.9-32-12.1-32-26.2c0-14,11.6-25.5,31.7-25.5c23.3,0,36.7,14.7,40.4,37.3h8.1l-0.9-45.5h-7.3c-0.4,3.4-1.8,6.9-5.6,6.9
	c-6.6,0-15.8-9.1-35.4-9.1c-28,0-49.5,19.5-49.5,47.1c0,35,22.8,47.7,46.8,51l10.4,1.5"/>
<path class="st0" d="M1026.2,372.7c-3.7,6.2-11.7,15.8-23.6,15.8c-9.9,0-18.7-4.4-18.7-20.1V250.1h42.2v-9.7h-42.2v-53.7h-7.3
	c-6.1,37.5-27.2,53.6-57.5,53.6v9.8h26.7v117.9c0,25.7,18.4,35.8,44.1,35.8c23.7,0,36-12,42.4-22L1026.2,372.7"/>
<path class="st0" d="M110.6,752.9c-0.9,22-2.1,43.6-2.1,70.7h-11c2.2-26,3-68.1,3-78.4h31c16.5,0,20.1,11.9,20.1,18.8
	c0,16.1-12.9,24.5-27.8,24.5c-3.1,0-6.1-0.3-9.2-0.8l-2-7.3c2.9,0.5,5.8,0.8,8.7,0.8c10.5,0,19.5-4.9,19.5-16.6
	c0-9.4-6.8-11.8-12.3-11.8L110.6,752.9z"/>
<path class="st0" d="M170.9,774.8h0.3c3-6.9,10-11.1,17.5-10.6c1.5,0,3.1,0.2,4.6,0.6l0.4,8.6c-2.1-0.6-4.4-0.9-6.6-1
	c-9.7,0-14.7,7.5-16,16.2c-1.1,11.6-1.5,23.3-1.2,35h-10.4c1-16.8,2.1-33.7,2-58.2h9.8L170.9,774.8z"/>
<path class="st0" d="M257.3,792.7c0,15.2-7.7,32.2-30.7,32.2c-17.6,0-29-11-29-28.9c0-19.1,11.4-31.8,30.9-31.8
	C246.3,764.2,257.3,775,257.3,792.7z M207.6,796.4c0,12,6,21.3,19.3,21.3c14.9,0,20.4-11.6,20.4-25c0-13.4-6.1-21.2-19.6-21.2
	S207.6,782.3,207.6,796.4z"/>
<path class="st0" d="M279.5,775.9l0.2-0.2c3.8-7.3,11.4-11.8,19.6-11.5c8.2,0,15.4,3.4,17.6,11.9c3.8-7.8,11.9-12.4,20.5-11.9
	c10.2,0,18.1,5,18.1,15.9c0,6.7-1.8,20.1-2,43.6h-9.9c0.7-13.1,1.9-26.3,1.9-39.4c0-7.7-3.7-12.2-11.8-12.2
	c-6.1,0.2-11.5,4-13.8,9.6c-3,6.4-3,16.7-3.7,41.9h-10.6c0.7-13.1,1.9-26.3,1.9-39.4c0-7.7-3.7-12.2-11.8-12.2
	c-6.1,0.2-11.6,3.9-14,9.6c-3.1,6.4-3.1,16.7-3.7,41.9h-10.4c1.6-18.5,2.5-41.1,2.6-58.2h9.8L279.5,775.9z"/>
<path class="st0" d="M426.5,792.7c0,15.2-7.8,32.2-30.7,32.2c-17.6,0-29-11-29-28.9c0-19.1,11.4-31.8,30.9-31.8
	C415.4,764.2,426.5,775,426.5,792.7z M376.7,796.4c0,12,6,21.3,19.3,21.3c14.9,0,20.5-11.6,20.5-25c0-13.4-6.1-21.2-19.7-21.2
	s-20,10.8-20,24.9H376.7z"/>
<path class="st0" d="M488.9,765.5c-8.9,19.3-17.9,38.6-26.1,58.2h-11.4l-21-58.2h10.7l16.5,49.5l20.6-49.5H488.9z"/>
<path class="st0" d="M501.1,793.4v3.3c0,13.5,8.5,21,21.7,21c6.1-0.3,12.1-1.5,17.9-3.7l-1.6,8.6c-5.8,1.5-11.8,2.3-17.8,2.4
	c-24.1,0-30.2-14.7-30.2-29.1c0-18,10.1-31.7,29.1-31.7c15.4,0,25.2,7.9,25.2,23.9c0,1.8-0.1,3.5-0.3,5.3L501.1,793.4z M535.9,787.2
	c0-9.6-4.4-16.9-14.9-16.9c-9.9-0.4-18.3,7-19.3,16.9H535.9z"/>
<path class="st0" d="M567.2,776.8l0.2-0.3c4.7-9.3,12.9-12.3,23.3-12.3c12.3,0,22,4.6,22,18.4c0,4.1-1.5,31.6-1.6,41.2h-10.2
	c0.5-6.9,1.9-27.5,1.9-37.7c0-10.2-6.1-13.8-15.7-13.8c-9.4-0.3-17.6,6.3-19.3,15.6c-1.7,11.9-2.5,23.9-2.4,36H555
	c1.4-19.4,2.7-38.8,2.9-58.2H568L567.2,776.8z"/>
<path class="st0" d="M670.9,811.9l-0.2-0.2c-4,8.5-12.7,13.8-22,13.3c-13.8,0-24.7-9.5-24.7-26.9s11-33.9,35.4-33.9
	c4.3,0,8.6,0.4,12.8,1.2c0.4-6.9,0.4-12.2,0.4-20.1h10.4c-1.5,26.1-2.6,52.3-2.8,78.4h-9.8L670.9,811.9z M658.9,771.5
	c-18.4,0-25,15-25,26.1s5.9,20.1,17.6,20.1c10.4,0,16.6-7.9,18.4-17.3c1.2-9,1.7-18.2,1.7-27.3C667.4,771.9,663.2,771.4,658.9,771.5
	L658.9,771.5z"/>
<path class="st0" d="M753,792.7c0,15.2-7.7,32.2-30.7,32.2c-17.6,0-29-11-29-28.9c0-19.1,11.4-31.8,30.9-31.8
	C742,764.2,753,775,753,792.7z M703.3,796.4c0,12,6,21.3,19.2,21.3c14.9,0,20.5-11.6,20.5-25c0-13.4-6.1-21.2-19.6-21.2
	S703.3,782.3,703.3,796.4z"/>
<path class="st0" d="M858.1,792.7c0,15.2-7.7,32.2-30.7,32.2c-17.6,0-29.1-11-29.1-28.9c0-19.1,11.4-31.8,30.9-31.8
	C847,764.2,858.1,775,858.1,792.7z M808.4,796.4c0,12,6,21.3,19.3,21.3c14.9,0,20.5-11.6,20.5-25c0-13.4-6.1-21.2-19.6-21.2
	S808.4,782.3,808.4,796.4z"/>
<path class="st0" d="M941.9,823.7c1.2-9,1.5-22.6,2.1-34.1c-7.3,7.6-33.1,6-33.1,19.9c0,7.3,7.2,9.4,13.1,9.4
	c4.1-0.1,8.2-0.8,12.1-2.1l-1.9,7.1c-3.8,0.7-7.6,1.1-11.5,1.2c-8.6,0-21.3-1.8-21.3-15.4c0-24.4,42.6-15,42.6-30.9
	c0-7.1-8-8.3-13.5-8.3c-7.4,0-14.7,1.6-21.5,4.6l1-7.6c7.1-1.9,14.4-3,21.7-3c19.4,0,22,7.3,22,15.1c0,8.7-1.8,31.5-1.8,44.4H941.9z
	"/>
<path class="st0" d="M1019.3,765.5c-8.9,19.3-17.9,38.6-26.1,58.2h-11.3l-21-58.2h10.7l16.5,49.5l20.6-49.5H1019.3z"/>
<path class="st0" d="M1061.2,823.7c1.2-9,1.5-22.6,2.1-34.1c-7.3,7.6-33.2,6-33.2,19.9c0,7.3,7.2,9.4,13.1,9.4
	c4.1-0.1,8.2-0.8,12.1-2.1l-1.9,7.1c-3.8,0.7-7.7,1.1-11.5,1.2c-8.6,0-21.3-1.8-21.3-15.4c0-24.4,42.6-15,42.6-30.9
	c0-7.1-8-8.3-13.5-8.3c-7.4,0-14.7,1.6-21.5,4.6l1.1-7.6c7.1-1.9,14.4-3,21.7-3c19.4,0,22,7.3,22,15.1c0,8.7-1.8,31.5-1.8,44.4
	H1061.2z"/>
<path class="st0" d="M1098.6,776.8l0.3-0.3c4.7-9.3,12.9-12.3,23.3-12.3c12.3,0,22,4.6,22,18.4c0,4.1-1.5,31.6-1.7,41.2h-10.2
	c0.4-6.9,1.9-27.5,1.9-37.7c0-10.2-6.1-13.8-15.8-13.8c-9.4-0.3-17.6,6.3-19.3,15.6c-1.7,11.9-2.5,23.9-2.4,36h-10.4
	c1.4-19.4,2.7-38.8,2.9-58.2h10.1L1098.6,776.8z"/>
<path class="st0" d="M1201.8,774.3c-5.3-1.9-10.9-2.9-16.6-2.9c-13.4,0-19.9,11-19.9,24.8c0,13.8,7.2,21.4,20.8,21.4
	c4.7-0.2,9.3-1,13.8-2.6l-1.4,8.2c-4.9,1.1-9.9,1.6-14.9,1.7c-18.4,0-28.2-10.5-28.2-28.6c0-18.1,8.9-32.2,29.9-32.2
	c5.4,0,10.8,0.7,16,2.2L1201.8,774.3z M1167.9,843.7l12-14.3h7.8l-7.2,14.3H1167.9z"/>
<path class="st0" d="M1267.8,792.7c0,15.2-7.7,32.2-30.7,32.2c-17.6,0-29.1-11-29.1-28.9c0-19.1,11.4-31.8,30.9-31.8
	C1256.8,764.2,1267.8,775,1267.8,792.7z M1218.1,796.4c0,12,6,21.3,19.2,21.3c14.9,0,20.5-11.6,20.5-25c0-13.4-6.1-21.2-19.6-21.2
	C1224.7,771.5,1218.1,782.3,1218.1,796.4z"/>
<path class="st0" d="M1360.2,811.9l-0.2-0.2c-4,8.5-12.7,13.8-22,13.3c-13.8,0-24.7-9.5-24.7-26.9s11-33.9,35.4-33.9
	c4.3,0,8.6,0.4,12.8,1.2c0.4-6.9,0.4-12.2,0.4-20.1h10.3c-1.5,26.1-2.6,52.3-2.8,78.4h-10L1360.2,811.9z M1348.2,771.5
	c-18.4,0-25,15-25,26.1s5.9,20.1,17.6,20.1c10.4,0,16.6-7.9,18.4-17.3c1.2-9,1.8-18.2,1.7-27.3c-4-1.2-8.2-1.7-12.5-1.6H1348.2z"/>
<path class="st0" d="M1420.9,823.7c1.2-9,1.5-22.6,2.1-34.1c-7.5,7.6-33.3,6-33.3,19.9c0,7.3,7.2,9.4,13.1,9.4
	c4.1-0.1,8.2-0.8,12.1-2.1l-1.9,7.1c-3.8,0.7-7.7,1.1-11.5,1.2c-8.6,0-21.3-1.8-21.3-15.4c0-24.4,42.7-15,42.7-30.9
	c0-7.1-8-8.3-13.5-8.3c-7.4,0-14.7,1.6-21.5,4.6l1.1-7.6c7.1-1.9,14.4-3,21.7-3c19.4,0,22.2,7.3,22.2,15.1c0,8.7-1.8,31.5-1.8,44.4
	H1420.9z"/>
<path class="st0" d="M1527.1,774.3c-5.3-1.9-10.9-2.9-16.6-2.9c-13.4,0-19.9,11-19.9,24.8c0,13.8,7.2,21.4,20.8,21.4
	c4.7-0.2,9.3-1,13.8-2.6l-1.4,8.2c-4.9,1.1-9.9,1.6-14.9,1.7c-18.4,0-28.2-10.5-28.2-28.6c0-18.1,8.9-32.2,29.9-32.2
	c5.4,0,10.8,0.7,16,2.2L1527.1,774.3z"/>
<path class="st0" d="M1548.9,765.5c-1.4,19.4-2.1,38.8-2.2,58.2h-10.8c1.5-19.4,2.4-38.8,2.6-58.2H1548.9z M1538.5,753.4l0.2-8.1h11
	l-0.2,8.1H1538.5z"/>
<path class="st0" d="M1570,793.4v3.3c0,13.5,8.4,21,21.7,21c6.1-0.3,12.1-1.5,17.9-3.7l-1.6,8.6c-5.8,1.5-11.8,2.3-17.8,2.4
	c-24.1,0-30.2-14.7-30.2-29.1c0-18,10.1-31.7,29.1-31.7c15.4,0,25.2,7.9,25.2,23.9c0,1.8-0.1,3.5-0.3,5.3L1570,793.4z M1604.9,787.2
	c0-9.6-4.4-16.9-14.9-16.9c-9.9-0.4-18.3,7-19.3,16.9H1604.9z M1590.2,746.8l-6.8,9.7h-6.6l6-13.8h14.9l6.7,13.8h-6.7L1590.2,746.8z
	"/>
<path class="st0" d="M1636.1,776.8l0.2-0.3c4.7-9.3,12.9-12.3,23.3-12.3c12.3,0,22,4.6,22,18.4c0,4.1-1.5,31.6-1.6,41.2h-10.2
	c0.5-6.9,1.9-27.5,1.9-37.7c0-10.2-6.1-13.8-15.7-13.8c-9.4-0.3-17.7,6.3-19.3,15.6c-1.7,11.9-2.5,23.9-2.4,36h-10.5
	c1.4-19.4,2.7-38.8,2.9-58.2h10.1L1636.1,776.8z"/>
<path class="st0" d="M1739.4,774.3c-5.3-1.9-10.9-2.9-16.6-2.9c-13.4,0-19.9,11-19.9,24.8c0,13.8,7.3,21.4,20.8,21.4
	c4.7-0.2,9.3-1,13.7-2.6l-1.4,8.2c-4.9,1.1-9.9,1.6-14.9,1.7c-18.4,0-28.2-10.5-28.2-28.6c0-18.1,8.9-32.2,29.8-32.2
	c5.4,0,10.8,0.7,16,2.2L1739.4,774.3z"/>
<path class="st0" d="M1761.3,765.5c-1.4,19.4-2.1,38.8-2.2,58.2h-10.8c1.5-19.4,2.4-38.8,2.6-58.2H1761.3z M1750.8,753.4l0.2-8.1h11
	l-0.3,8.1H1750.8z"/>
<path class="st0" d="M1810.4,823.7c1.2-9,1.5-22.6,2.1-34.1c-7.5,7.6-33.3,6-33.3,19.9c0,7.3,7.2,9.4,13.2,9.4
	c4.1,0,8.2-0.8,12.1-2.1l-1.9,7.1c-3.8,0.7-7.7,1.1-11.5,1.2c-8.6,0-21.3-1.8-21.3-15.4c0-24.4,42.7-15,42.7-30.9
	c0-7.1-8-8.3-13.5-8.3c-7.4,0-14.7,1.6-21.5,4.6l1.1-7.6c7.1-1.9,14.4-3,21.7-3c19.4,0,22.2,7.3,22.2,15.1c0,8.7-1.8,31.5-1.8,44.4
	H1810.4z"/>
<path class="st0" d="M243.4,952.4c1.9-27.3,2.8-54.5,3.3-81.9c8.9-2.2,18.1-3.3,27.3-3.4c15.5,0,28.7,6.8,28.7,28.1
	c0,17.2-8.6,32.7-27.5,32.7c-8.3,0.2-16.1-4.2-20.2-11.5h-0.3c0,10.4-0.8,21-0.8,36.1H243.4z M255.6,898.9
	c0,13.9,6.6,21.6,17.9,21.6c13.9,0,19.3-13.3,19.3-25.3c0-13.1-6.9-20.9-20.3-20.9c-5.5,0.1-10.9,1.1-16.1,2.9
	C256.1,883.6,255.6,890.1,255.6,898.9z"/>
<path class="st0" d="M350.8,926.5c1.2-9,1.5-22.6,2.1-34.1c-7.3,7.6-33.3,6-33.3,19.9c0,7.3,7.3,9.4,13.1,9.4
	c4.1-0.1,8.2-0.8,12.1-2.1l-1.9,7.1c-3.8,0.7-7.7,1.1-11.5,1.2c-8.6,0-21.3-1.8-21.3-15.4c0-24.4,42.7-15,42.7-30.9
	c0-7.1-8-8.3-13.5-8.3c-7.4,0-14.7,1.6-21.5,4.6l1.1-7.6c7.1-1.9,14.4-3,21.7-3c19.4,0,22,7.3,22,15.1c0,8.7-1.8,31.5-1.8,44.4
	H350.8z"/>
<path class="st0" d="M387.3,877.6h0.2c3-6.9,10-11.1,17.5-10.6c1.5,0,3.1,0.2,4.6,0.6l0.4,8.6c-2.2-0.6-4.4-0.9-6.6-1
	c-9.6,0-14.7,7.5-16,16.2c-1.1,11.6-1.5,23.3-1.2,35h-10.3c0.9-16.8,2.1-33.7,2-58.2h9.8L387.3,877.6z"/>
<path class="st0" d="M452.9,926.5c1.2-9,1.5-22.6,2.1-34.1c-7.3,7.6-33.1,6-33.1,19.9c0,7.3,7.3,9.4,13.1,9.4
	c4.1,0,8.2-0.8,12.1-2.1l-1.9,7.1c-3.8,0.7-7.6,1.1-11.5,1.2c-8.6,0-21.3-1.8-21.3-15.4c0-24.4,42.7-15,42.7-30.9
	c0-7.1-8-8.3-13.5-8.3c-7.4,0-14.7,1.6-21.5,4.6l1-7.6c7.1-1.9,14.4-3,21.7-3c19.4,0,22,7.3,22,15.1c0,8.7-1.8,31.5-1.8,44.4H452.9z
	"/>
<path class="st0" d="M551.3,926.5c1.2-9,1.5-22.6,2.1-34.1c-7.3,7.6-33.1,6-33.1,19.9c0,7.3,7.3,9.4,13.1,9.4
	c4.1-0.1,8.2-0.8,12.1-2.1l-1.9,7.1c-3.8,0.7-7.6,1.1-11.5,1.2c-8.6,0-21.3-1.8-21.3-15.4c0-24.4,42.6-15,42.6-30.9
	c0-7.1-8-8.3-13.5-8.3c-7.4,0-14.7,1.6-21.5,4.6l1-7.6c7.1-1.9,14.4-3,21.7-3c19.4,0,22,7.3,22,15.1c0,8.7-1.8,31.5-1.8,44.4H551.3z
	"/>
<path class="st0" d="M612.2,952.4c1.9-27.3,2.8-54.5,3.3-81.9c8.9-2.2,18.1-3.3,27.3-3.4c15.5,0,28.7,6.8,28.7,28.1
	c0,17.2-8.6,32.7-27.5,32.7c-8.3,0.2-16.1-4.3-20.2-11.5h-0.2c0,10.4-0.8,21-0.8,36.1H612.2z M624.3,898.9
	c0,13.9,6.6,21.6,17.9,21.6c13.9,0,19.3-13.3,19.3-25.3c0-13.1-6.9-20.9-20.3-20.9c-5.5,0.1-10.9,1.1-16.1,2.9
	C624.8,883.6,624.3,890.1,624.3,898.9z"/>
<path class="st0" d="M693.5,877.6h0.2c3-6.9,10-11.1,17.5-10.6c1.5,0,3.1,0.2,4.6,0.6l0.4,8.6c-2.2-0.6-4.4-0.9-6.6-1
	c-9.6,0-14.7,7.5-16,16.2c-1.1,11.6-1.5,23.3-1.2,35h-10.3c0.9-16.8,2.1-33.7,2-58.2h9.8L693.5,877.6z"/>
<path class="st0" d="M730.3,896.2v3.3c0,13.5,8.5,21,21.7,21c6.1-0.3,12.1-1.5,17.9-3.7l-1.7,8.6c-5.8,1.5-11.8,2.3-17.7,2.4
	c-24.1,0-30.2-14.7-30.2-29.1c0-18,10.1-31.7,29.1-31.7c15.4,0,25.3,7.9,25.3,23.9c0,1.8-0.2,3.5-0.4,5.3L730.3,896.2z M765.2,890.1
	c0-9.6-4.5-16.9-14.9-16.9c-9.9-0.4-18.3,7.1-19.2,16.9H765.2z"/>
<path class="st0" d="M780,916.8c5.2,2.3,10.8,3.5,16.5,3.7c4.9,0,11.8-1.4,11.8-7.5c0-10.8-24.1-17.5-24.1-31.4
	c0-8.4,6.3-14.7,19.8-14.7c4.7,0.1,9.5,0.6,14.1,1.5l0.5,8.2c-4.3-1.6-8.9-2.5-13.5-2.5c-4.9,0-11,1.2-11,6.7
	c0,10.7,24.1,17.4,24.1,32c0,11-11,14.7-20.3,14.7c-5.8-0.1-11.5-0.9-17-2.4L780,916.8z"/>
<path class="st0" d="M837.5,896.2v3.3c0,13.5,8.4,21,21.7,21c6.1-0.3,12.1-1.5,17.9-3.7l-1.7,8.6c-5.8,1.5-11.8,2.3-17.7,2.4
	c-24.1,0-30.2-14.7-30.2-29.1c0-18,10.1-31.7,29-31.7c15.4,0,25.3,7.9,25.3,23.9c0,1.8-0.1,3.5-0.3,5.3L837.5,896.2z M872.4,890.1
	c0-9.6-4.4-16.9-14.9-16.9c-9.9-0.4-18.3,7-19.3,16.9H872.4z"/>
<path class="st0" d="M902.7,877.6h0.3c3-6.9,10-11.1,17.5-10.6c1.5,0,3.1,0.2,4.6,0.6l0.4,8.6c-2.1-0.6-4.4-0.9-6.6-1
	c-9.7,0-14.7,7.5-16,16.2c-1.1,11.6-1.5,23.3-1.2,35h-10.4c1-16.8,2.1-33.7,2-58.2h9.8L902.7,877.6z"/>
<path class="st0" d="M988.9,868.3c-8.9,19.3-17.9,38.6-26.1,58.2h-11.2l-21-58.2h10.7l16.5,49.5l20.6-49.5H988.9z"/>
<path class="st0" d="M1030.8,926.5c1.2-9,1.5-22.6,2.1-34.1c-7.5,7.6-33.3,6-33.3,19.9c0,7.3,7.2,9.4,13.1,9.4
	c4.1-0.1,8.2-0.8,12.1-2.1l-1.9,7.1c-3.8,0.7-7.7,1.1-11.5,1.2c-8.6,0-21.3-1.8-21.3-15.4c0-24.4,42.7-15,42.7-30.9
	c0-7.1-8-8.3-13.5-8.3c-7.4,0-14.7,1.6-21.5,4.6l1.1-7.6c7.1-1.9,14.4-3,21.7-3c19.4,0,22,7.3,22,15.1c0,8.7-1.8,31.5-1.8,44.4
	H1030.8z"/>
<path class="st0" d="M1100.8,877.2c-5.3-1.9-10.9-2.9-16.6-2.9c-13.4,0-19.9,11-19.9,24.8s7.2,21.4,20.8,21.4
	c4.7-0.2,9.3-1,13.7-2.6l-1.4,8.2c-4.9,1.1-9.9,1.6-14.9,1.7c-18.4,0-28.2-10.5-28.2-28.6s8.9-32.2,29.9-32.2c5.4,0,10.8,0.7,16,2.2
	L1100.8,877.2z M1066.8,946.5l12-14.3h7.7l-7.3,14.3H1066.8z"/>
<path class="st0" d="M1148.4,926.5c1.2-9,1.5-22.6,2.1-34.1c-7.5,7.6-33.2,6-33.2,19.9c0,7.3,7.3,9.4,13.1,9.4
	c4.1,0,8.2-0.8,12.1-2.1l-1.9,7.1c-3.8,0.7-7.6,1.1-11.5,1.2c-8.6,0-21.3-1.8-21.3-15.4c0-24.4,42.6-15,42.6-30.9
	c0-7.1-8-8.3-13.5-8.3c-7.4,0-14.7,1.6-21.5,4.6l1-7.6c7.1-1.9,14.4-3,21.7-3c19.4,0,22.2,7.3,22.2,15.1c0,8.7-1.8,31.5-1.8,44.4
	H1148.4z M1120.1,858.5c0-5.2,0.8-13.2,7.7-13.2c3.4,0.5,6.5,1.9,9.1,4.1c2.2,2.1,4.9,3.5,7.9,4.1c3.4,0,3.7-5,3.7-7.3h5.9
	c0,5.6-0.7,13.6-8,13.6c-3.4-0.4-6.6-1.9-9.2-4.2c-2.2-2-4.9-3.4-7.9-4c-3.3,0-3.2,4.8-3.4,7.1L1120.1,858.5z"/>
<path class="st0" d="M1231.5,895.5c0,15.2-7.7,32.2-30.7,32.2c-17.6,0-29-11-29-28.9c0-19.1,11.4-31.8,30.9-31.8
	C1220.5,867,1231.5,877.9,1231.5,895.5z M1181.8,899.2c0,12,6,21.3,19.2,21.3c14.9,0,20.5-11.6,20.5-25c0-13.4-6.1-21.2-19.6-21.2
	C1188.4,874.3,1181.8,885.1,1181.8,899.2z"/>
<path class="st0" d="M1323.9,914.7l-0.2-0.2c-4,8.5-12.7,13.8-22,13.3c-13.8,0-24.7-9.5-24.7-26.9s11-33.9,35.4-33.9
	c4.3,0,8.6,0.4,12.8,1.2c0.4-6.9,0.4-12.2,0.4-20.1h10.3c-1.5,26.1-2.6,52.3-2.8,78.4h-9.8L1323.9,914.7z M1311.9,874.3
	c-18.4,0-25,15-25,26.1c0,11.1,5.9,20.1,17.6,20.1c10.4,0,16.6-7.9,18.4-17.3c1.2-9,1.7-18.2,1.7-27.3
	C1320.4,874.8,1316.2,874.2,1311.9,874.3z"/>
<path class="st0" d="M1384.6,926.5c1.2-9,1.5-22.6,2.1-34.1c-7.5,7.6-33.3,6-33.3,19.9c0,7.3,7.2,9.4,13.1,9.4
	c4.1,0,8.2-0.8,12.1-2.1l-1.9,7.1c-3.8,0.7-7.7,1.1-11.5,1.2c-8.6,0-21.3-1.8-21.3-15.4c0-24.4,42.7-15,42.7-30.9
	c0-7.1-8-8.3-13.5-8.3c-7.4,0-14.7,1.6-21.5,4.6l1.1-7.6c7.1-1.9,14.4-3,21.7-3c19.4,0,22.2,7.3,22.2,15.1c0,8.7-1.8,31.5-1.8,44.4
	H1384.6z"/>
<path class="st0" d="M1498.4,868.3c-9,19.3-17.9,38.6-26.1,58.2H1461l-21-58.2h10.7l16.5,49.5l20.5-49.5H1498.4z"/>
<path class="st0" d="M1517.6,868.3c-1.4,19.4-2.1,38.8-2.2,58.2h-11c1.5-19.4,2.4-38.8,2.6-58.2H1517.6z M1507.1,856.2l0.2-8.1h11
	l-0.2,8.1H1507.1z"/>
<path class="st0" d="M1575.4,914.7l-0.2-0.2c-4,8.5-12.7,13.8-22,13.3c-13.8,0-24.7-9.5-24.7-26.9s11-33.9,35.4-33.9
	c4.3,0,8.6,0.4,12.8,1.2c0.4-6.9,0.4-12.2,0.4-20.1h10.1c-1.5,26.1-2.6,52.3-2.8,78.4h-9.8L1575.4,914.7z M1563.4,874.3
	c-18.4,0-25,15-25,26.1c0,11.1,5.9,20.1,17.6,20.1c10.4,0,16.6-7.9,18.4-17.3c1.2-9,1.7-18.2,1.6-27.3
	C1571.9,874.8,1567.7,874.2,1563.4,874.3z"/>
<path class="st0" d="M1636.1,926.5c1.2-9,1.5-22.6,2.1-34.1c-7.5,7.6-33.3,6-33.3,19.9c0,7.3,7.2,9.4,13.1,9.4
	c4.1-0.1,8.2-0.8,12.1-2.1l-1.9,7.1c-3.8,0.7-7.7,1.1-11.5,1.2c-8.6,0-21.3-1.8-21.3-15.4c0-24.4,42.7-15,42.7-30.9
	c0-7.1-8-8.3-13.5-8.3c-7.4,0-14.7,1.6-21.5,4.6l1.1-7.6c7.1-1.9,14.4-3,21.7-3c19.4,0,22.2,7.3,22.2,15.1c0,8.7-1.8,31.5-1.8,44.4
	H1636.1z"/>
<path class="st0" d="M1664.2,875.9c0.4-7.8,0.8-15.7,1-23.5c-2.9,0-5.7,0-8.6,0l0.2-3.7h22.4v3.7c-2.9,0-5.8,0-8.7,0
	c-0.3,7.8-0.7,15.7-0.7,23.5H1664.2z M1708.8,875.9c0.2-7.3,0.3-15,0.3-22.5l0,0c-3.1,7.3-6.2,15-9.2,22.5h-6
	c-2.1-7.3-4.3-15-6.3-22.5l0,0c-0.6,7.3-1,15-1.4,22.5h-4.7c0.8-9,1.3-18,1.8-27.1h8.2c1.7,7.3,3.9,14.5,6.1,21.7
	c3.2-7.3,6.2-14.5,9-21.7h7.6c-0.3,9-0.4,18-0.4,27.1H1708.8z"/>
</svg>
