<?xml version="1.0" encoding="utf-8"?>
<!-- Generator: Adobe Illustrator 25.4.1, SVG Export Plug-In . SVG Version: 6.00 Build 0)  -->
<svg version="1.1" id="Layer_1" xmlns="http://www.w3.org/2000/svg" xmlns:xlink="http://www.w3.org/1999/xlink" x="0px" y="0px"
	 viewBox="0 0 1920 1080" style="enable-background:new 0 0 1920 1080;" xml:space="preserve">
<style type="text/css">
	.st0{fill:#48B8D2;}
	.st1{fill:#00467F;}
	.st2{fill:none;stroke:#8D65D2;stroke-width:5;stroke-miterlimit:10;}
	.st3{fill:none;stroke:#48B8D2;stroke-width:5;stroke-linecap:round;stroke-miterlimit:10;}
</style>
<rect class="st0" width="1920" height="1080"/>
<rect class="st1" width="1925.4" height="498.9"/>
<g>
	<path class="st1" d="M556.4,673.6h21.1l17,59.4h0.2l17.3-59.4h20.6l-26.3,78h-23.7L556.4,673.6z"/>
	<path class="st1" d="M643.1,673.6h19.1v78h-19.1V673.6z"/>
	<path class="st1" d="M680.4,673.6h28.7c6.5,0,12.2,0.9,17.3,2.6s9.2,4.3,12.5,7.6s5.8,7.4,7.5,12.1c1.7,4.8,2.5,10.1,2.5,16.1
		s-0.8,11.5-2.5,16.4s-4.2,9-7.5,12.5s-7.5,6.1-12.4,7.9c-5,1.8-10.8,2.7-17.3,2.7h-28.7L680.4,673.6L680.4,673.6z M699.5,736.4h6.9
		c4.2,0,7.8-0.6,10.8-1.7c2.9-1.2,5.4-2.8,7.3-5c1.9-2.1,3.3-4.7,4.1-7.6c0.8-2.9,1.3-6.1,1.3-9.6s-0.4-6.7-1.3-9.6
		c-0.9-2.9-2.2-5.4-4.1-7.5c-1.9-2.1-4.3-3.7-7.2-4.9s-6.5-1.7-10.8-1.7h-6.9L699.5,736.4L699.5,736.4z"/>
	<path class="st1" d="M774.7,751.6h-20.3l27.3-78H808l27.1,78h-20.5l-5.9-16.9h-28.3L774.7,751.6z M784.9,719.5h19.4l-9.6-30.9
		L784.9,719.5z"/>
	<path class="st1" d="M888.5,690c-2.7-0.9-5.5-1.5-8.3-1.9s-5.5-0.6-8.1-0.6c-1.5,0-2.9,0.1-4.2,0.3s-2.5,0.6-3.5,1
		c-1,0.5-1.8,1.1-2.3,2c-0.6,0.8-0.9,1.9-0.9,3.2c0.1,2.3,1.2,4.1,3.4,5.6s5.7,3.2,10.6,5.1c3.1,1.3,5.8,2.6,8.4,4
		c2.5,1.3,4.8,2.9,6.8,4.8c2,1.9,3.5,4.1,4.6,6.6s1.6,5.6,1.6,9.2c0,3.9-0.8,7.4-2.4,10.3c-1.6,2.9-3.8,5.4-6.6,7.4s-6,3.4-9.6,4.4
		s-7.5,1.5-11.6,1.5c-3.6,0-7.6-0.3-11.8-0.8s-8.3-1.4-12.2-2.7l3.1-15.3c3.6,1.2,7.2,2.1,10.6,2.7c3.5,0.6,6.6,0.9,9.3,0.9
		c4.1,0,7.2-0.6,9.1-1.9c1.9-1.2,2.9-3,2.9-5.4c0-1.2-0.3-2.2-0.8-3.1c-0.5-0.9-1.3-1.8-2.3-2.6c-1.1-0.8-2.4-1.7-4.1-2.5
		c-1.7-0.8-3.8-1.7-6.4-2.7c-3-1.2-5.8-2.5-8.4-3.9c-2.6-1.4-4.9-3.1-6.9-4.9c-2-1.9-3.6-4-4.7-6.4c-1.1-2.4-1.7-5.2-1.7-8.4
		c0-4.1,0.8-7.8,2.5-10.9c1.6-3.1,3.8-5.6,6.6-7.4c2.8-1.9,5.8-3.2,9.2-4.1c3.3-0.9,6.8-1.3,10.3-1.3c3.9,0,7.7,0.2,11.3,0.7
		s6.8,1.1,9.7,2L888.5,690z"/>
	<path class="st1" d="M984.7,690c-2.7-0.9-5.5-1.5-8.3-1.9s-5.5-0.6-8.1-0.6c-1.5,0-2.9,0.1-4.2,0.3s-2.5,0.6-3.5,1
		c-1,0.5-1.8,1.1-2.3,2c-0.6,0.8-0.9,1.9-0.9,3.2c0.1,2.3,1.2,4.1,3.4,5.6s5.7,3.2,10.6,5.1c3.1,1.3,5.8,2.6,8.4,4
		c2.5,1.3,4.8,2.9,6.8,4.8c2,1.9,3.5,4.1,4.6,6.6s1.6,5.6,1.6,9.2c0,3.9-0.8,7.4-2.4,10.3s-3.8,5.4-6.6,7.4s-6,3.4-9.6,4.4
		s-7.5,1.5-11.6,1.5c-3.6,0-7.6-0.3-11.8-0.8s-8.3-1.4-12.2-2.7l3.1-15.3c3.6,1.2,7.2,2.1,10.6,2.7c3.5,0.6,6.6,0.9,9.3,0.9
		c4.1,0,7.2-0.6,9.1-1.9c1.9-1.2,2.9-3,2.9-5.4c0-1.2-0.3-2.2-0.8-3.1c-0.5-0.9-1.3-1.8-2.3-2.6c-1.1-0.8-2.4-1.7-4.1-2.5
		c-1.7-0.8-3.8-1.7-6.4-2.7c-3-1.2-5.8-2.5-8.4-3.9c-2.6-1.4-4.9-3.1-6.9-4.9c-2-1.9-3.6-4-4.7-6.4c-1.1-2.4-1.7-5.2-1.7-8.4
		c0-4.1,0.8-7.8,2.5-10.9c1.6-3.1,3.8-5.6,6.6-7.4c2.8-1.9,5.8-3.2,9.2-4.1c3.3-0.9,6.8-1.3,10.3-1.3c3.9,0,7.7,0.2,11.3,0.7
		s6.8,1.1,9.7,2L984.7,690z"/>
	<path class="st1" d="M1019.6,751.6h-20.3l27.3-78h26.3l27.1,78h-20.5l-5.9-16.9h-28.3L1019.6,751.6z M1029.8,719.5h19.4l-9.6-30.9
		L1029.8,719.5z"/>
	<path class="st1" d="M1090.3,673.6h19.1v62.8h29.4v15.2h-48.5V673.6z"/>
	<path class="st1" d="M1133.8,673.6h21.1l17,59.4h0.2l17.3-59.4h20.6l-26.3,78H1160L1133.8,673.6z"/>
	<path class="st1" d="M1228,751.6h-20.3l27.3-78h26.3l27.1,78h-20.5l-5.9-16.9h-28.3L1228,751.6z M1238.1,719.5h19.4l-9.6-30.9
		L1238.1,719.5z"/>
	<path class="st1" d="M1341.7,690c-2.7-0.9-5.5-1.5-8.3-1.9s-5.5-0.6-8.1-0.6c-1.5,0-2.9,0.1-4.2,0.3c-1.3,0.2-2.5,0.6-3.5,1
		c-1,0.5-1.8,1.1-2.3,2c-0.6,0.8-0.9,1.9-0.9,3.2c0.1,2.3,1.2,4.1,3.4,5.6c2.2,1.5,5.7,3.2,10.6,5.1c3.1,1.3,5.8,2.6,8.4,4
		c2.5,1.3,4.8,2.9,6.8,4.8c2,1.9,3.5,4.1,4.6,6.6s1.6,5.6,1.6,9.2c0,3.9-0.8,7.4-2.4,10.3c-1.6,2.9-3.8,5.4-6.6,7.4
		c-2.8,2-6,3.4-9.6,4.4s-7.5,1.5-11.6,1.5c-3.6,0-7.6-0.3-11.8-0.8c-4.2-0.5-8.3-1.4-12.2-2.7l3.1-15.3c3.6,1.2,7.2,2.1,10.6,2.7
		c3.5,0.6,6.6,0.9,9.3,0.9c4.1,0,7.2-0.6,9.1-1.9c1.9-1.2,2.9-3,2.9-5.4c0-1.2-0.3-2.2-0.8-3.1c-0.5-0.9-1.3-1.8-2.3-2.6
		c-1.1-0.8-2.4-1.7-4.1-2.5s-3.8-1.7-6.4-2.7c-3-1.2-5.8-2.5-8.4-3.9s-4.9-3.1-6.9-4.9c-2-1.9-3.6-4-4.7-6.4s-1.7-5.2-1.7-8.4
		c0-4.1,0.8-7.8,2.5-10.9c1.6-3.1,3.8-5.6,6.6-7.4c2.8-1.9,5.8-3.2,9.2-4.1c3.3-0.9,6.8-1.3,10.3-1.3c3.9,0,7.7,0.2,11.3,0.7
		s6.8,1.1,9.7,2L1341.7,690z"/>
	<path class="st1" d="M691,780.2h49v15.2h-29.9v15.5h27.4v15.2h-27.4V843H741v15.2h-50V780.2z"/>
	<path class="st1" d="M798.5,796.6c-2.7-0.9-5.5-1.5-8.3-1.9s-5.5-0.6-8.1-0.6c-1.5,0-2.9,0.1-4.2,0.3s-2.5,0.6-3.5,1
		c-1,0.5-1.8,1.1-2.3,2c-0.6,0.8-0.9,1.9-0.9,3.2c0.1,2.3,1.2,4.1,3.4,5.6s5.7,3.2,10.6,5.1c3.1,1.3,5.8,2.6,8.4,4
		c2.5,1.3,4.8,2.9,6.8,4.8c2,1.9,3.5,4.1,4.6,6.6s1.6,5.6,1.6,9.2c0,3.9-0.8,7.4-2.4,10.3c-1.6,2.9-3.8,5.4-6.6,7.4s-6,3.4-9.6,4.4
		s-7.5,1.5-11.6,1.5c-3.6,0-7.6-0.3-11.8-0.8s-8.3-1.4-12.2-2.7l3.1-15.3c3.6,1.2,7.2,2.1,10.6,2.7c3.5,0.6,6.6,0.9,9.3,0.9
		c4.1,0,7.2-0.6,9.1-1.9c1.9-1.2,2.9-3,2.9-5.4c0-1.2-0.3-2.2-0.8-3.1c-0.5-0.9-1.3-1.8-2.3-2.6c-1.1-0.8-2.4-1.7-4.1-2.5
		c-1.7-0.8-3.8-1.7-6.4-2.7c-3-1.2-5.8-2.5-8.4-3.9c-2.6-1.4-4.9-3.1-6.9-4.9c-2-1.9-3.6-4-4.7-6.4c-1.1-2.4-1.7-5.2-1.7-8.4
		c0-4.1,0.8-7.8,2.5-10.9c1.6-3.1,3.8-5.6,6.6-7.4c2.8-1.9,5.8-3.2,9.2-4.1c3.3-0.9,6.8-1.3,10.3-1.3c3.9,0,7.7,0.2,11.3,0.7
		s6.8,1.1,9.7,2L798.5,796.6z"/>
	<path class="st1" d="M864.1,796.6c-2.7-0.9-5.5-1.5-8.3-1.9s-5.5-0.6-8.1-0.6c-1.5,0-2.9,0.1-4.2,0.3s-2.5,0.6-3.5,1
		c-1,0.5-1.8,1.1-2.3,2c-0.6,0.8-0.9,1.9-0.9,3.2c0.1,2.3,1.2,4.1,3.4,5.6s5.7,3.2,10.6,5.1c3.1,1.3,5.8,2.6,8.4,4
		c2.5,1.3,4.8,2.9,6.8,4.8c2,1.9,3.5,4.1,4.6,6.6s1.6,5.6,1.6,9.2c0,3.9-0.8,7.4-2.4,10.3c-1.6,2.9-3.8,5.4-6.6,7.4s-6,3.4-9.6,4.4
		s-7.5,1.5-11.6,1.5c-3.6,0-7.6-0.3-11.8-0.8s-8.3-1.4-12.2-2.7l3.1-15.3c3.6,1.2,7.2,2.1,10.6,2.7c3.5,0.6,6.6,0.9,9.3,0.9
		c4.1,0,7.2-0.6,9.1-1.9c1.9-1.2,2.9-3,2.9-5.4c0-1.2-0.3-2.2-0.8-3.1c-0.5-0.9-1.3-1.8-2.3-2.6c-1.1-0.8-2.4-1.7-4.1-2.5
		c-1.7-0.8-3.8-1.7-6.4-2.7c-3-1.2-5.8-2.5-8.4-3.9c-2.6-1.4-4.9-3.1-6.9-4.9c-2-1.9-3.6-4-4.7-6.4c-1.1-2.4-1.7-5.2-1.7-8.4
		c0-4.1,0.8-7.8,2.5-10.9c1.6-3.1,3.8-5.6,6.6-7.4c2.8-1.9,5.8-3.2,9.2-4.1c3.3-0.9,6.8-1.3,10.3-1.3c3.9,0,7.7,0.2,11.3,0.7
		s6.8,1.1,9.7,2L864.1,796.6z"/>
	<path class="st1" d="M886.6,780.2h49v15.2h-29.9v15.5h27.4v15.2h-27.4V843h30.9v15.2h-50V780.2z"/>
	<path class="st1" d="M993.9,858.2h-20.3l27.3-78h26.3l27.1,78h-20.5l-5.9-16.9h-28.3L993.9,858.2z M1004.1,826.1h19.4l-9.6-30.9
		L1004.1,826.1z"/>
	<path class="st1" d="M1112.9,839.6h0.2v-59.4h17.8v78h-28.5l-19.9-60.5h-0.2v60.5h-17.8v-78h29.7L1112.9,839.6z"/>
	<path class="st1" d="M1221.7,819.3c0,5.8-0.8,11.2-2.5,16.1c-1.6,4.9-4,9.2-7.2,12.7c-3.2,3.6-7.1,6.4-11.8,8.4s-10.1,3-16.2,3
		c-6,0-11.4-1-16.1-3s-8.6-4.8-11.7-8.4c-3.2-3.6-5.6-7.8-7.2-12.7s-2.5-10.3-2.5-16.1c0-5.9,0.8-11.3,2.4-16.2s4-9.1,7.2-12.8
		c3.2-3.6,7.1-6.5,11.8-8.5c4.7-2,10.1-3,16.1-3c6.2,0,11.6,1,16.3,3c4.7,2,8.6,4.8,11.7,8.4c3.2,3.6,5.6,7.8,7.2,12.7
		C1220.9,807.9,1221.7,813.3,1221.7,819.3z M1202.6,819.3c0-3.5-0.4-6.8-1.1-9.9c-0.7-3.1-1.9-5.8-3.4-8c-1.5-2.3-3.5-4-5.8-5.4
		c-2.3-1.3-5.1-2-8.3-2c-3.1,0-5.9,0.7-8.2,2c-2.3,1.3-4.2,3.1-5.7,5.4c-1.5,2.3-2.6,4.9-3.3,8c-0.7,3.1-1.1,6.4-1.1,9.9
		s0.4,6.7,1.1,9.7s1.8,5.6,3.3,7.9c1.5,2.3,3.4,4.1,5.8,5.4c2.4,1.3,5.1,2,8.4,2c3.2,0,6-0.6,8.3-1.9c2.3-1.3,4.2-3.1,5.7-5.4
		c1.5-2.3,2.6-5,3.3-8C1202.2,826,1202.6,822.8,1202.6,819.3z"/>
</g>
<line class="st2" x1="-5.4" y1="931.6" x2="1925.4" y2="931.6"/>
<g>
	<g>
		<g>
			<path class="st0" d="M960,267.1c-0.5,0-1.1-0.1-1.6-0.4l-1.8-1.1c-2.9-1.8-71.1-43.7-71.1-88.8c0-22.6,18.4-41.1,41.1-41.1
				c13.3,0,25.7,6.5,33.4,17.2c7.7-10.7,20-17.2,33.4-17.2c22.6,0,41.1,18.4,41.1,41.1c0,45.2-68.2,87-71.1,88.8l-1.8,1.1
				C961.1,267,960.5,267.1,960,267.1z M926.6,141.9c-19.3,0-35,15.7-35,35c0,21.4,17.8,42.6,32.8,56.5c17,15.9,34.6,26.6,35.4,27.1
				l0,0l0.2,0.1l0.2-0.1c0.7-0.5,18.4-11.2,35.4-27.1c15-13.9,32.8-35.1,32.8-56.5c0-19.3-15.7-35-35-35c-12.8,0-24.6,7-30.7,18.2
				c-0.5,1-1.6,1.6-2.7,1.6l0,0c-1.1,0-2.1-0.6-2.7-1.6C951.2,148.8,939.4,141.9,926.6,141.9z"/>
		</g>
		<g>
			<path class="st0" d="M1008,179.9c-1.7,0-3-1.4-3-3c0-6.4-5.2-11.6-11.6-11.6c-1.7,0-3-1.4-3-3c0-1.7,1.4-3,3-3
				c9.8,0,17.7,7.9,17.7,17.7C1011.1,178.5,1009.7,179.9,1008,179.9z"/>
		</g>
	</g>
</g>
<g id="rRlxXg_1_">
</g>
<line class="st3" x1="1066.3" y1="201.2" x2="1925.4" y2="201.2"/>
<line class="st3" x1="-5.4" y1="201.2" x2="859.1" y2="201.2"/>
</svg>
